<svg width="28" height="28" viewBox="0 0 28 28" fill="none" xmlns="http://www.w3.org/2000/svg">
<g clip-path="url(#clip0_1370_922)">
<path d="M9.33268 24.4999H1.16602V1.16655H26.8327V12.8332" stroke="#1D252C" stroke-width="2.1" stroke-linejoin="round"/>
<path d="M5.83268 5.83333C6.47701 5.83333 6.99935 5.31099 6.99935 4.66667C6.99935 4.02234 6.47701 3.5 5.83268 3.5C5.18836 3.5 4.66602 4.02234 4.66602 4.66667C4.66602 5.31099 5.18836 5.83333 5.83268 5.83333Z" fill="#1D252C"/>
<path d="M10.5007 5.83333C11.145 5.83333 11.6673 5.31099 11.6673 4.66667C11.6673 4.02234 11.145 3.5 10.5007 3.5C9.85632 3.5 9.33398 4.02234 9.33398 4.66667C9.33398 5.31099 9.85632 5.83333 10.5007 5.83333Z" fill="#1D252C"/>
<path d="M1.16602 8.16655H26.8327" stroke="#1D252C" stroke-width="2.1" stroke-linejoin="round"/>
<path d="M26.8333 20.9999C26.8333 20.9999 23.3333 26.8332 18.6667 26.8332C14 26.8332 10.5 20.9999 10.5 20.9999C10.5 20.9999 14 15.1665 18.6667 15.1665C23.3333 15.1665 26.8333 20.9999 26.8333 20.9999Z" stroke="#1D252C" stroke-width="2.1" stroke-linejoin="round"/>
<path d="M18.6673 23.3332C19.956 23.3332 21.0007 22.2886 21.0007 20.9999C21.0007 19.7112 19.956 18.6665 18.6673 18.6665C17.3786 18.6665 16.334 19.7112 16.334 20.9999C16.334 22.2886 17.3786 23.3332 18.6673 23.3332Z" fill="#1D252C"/>
</g>
<defs>
<clipPath id="clip0_1370_922">
<rect width="28" height="28" fill="white"/>
</clipPath>
</defs>
</svg>
