<svg width="62" height="68" viewBox="0 0 62 68" fill="none" xmlns="http://www.w3.org/2000/svg">
<path d="M34.8983 47.8311H6.08331C2.72203 47.8311 0 45.1187 0 41.7694V13.0568C0 9.70752 2.72203 6.99516 6.08331 6.99516H34.8983C38.2596 6.99516 40.9817 9.70752 40.9817 13.0568V41.7694C40.9817 45.1187 43.7037 47.8311 47.065 47.8311H58.3133C60.3494 47.8311 62 49.4551 62 51.4586V64.3725C62 66.3759 60.3494 68 58.3133 68H44.6684C42.6323 68 40.9817 66.3759 40.9817 64.3725V53.8927C40.9817 50.5434 38.2596 47.8311 34.8983 47.8311Z" fill="#9FA0A1"/>
<path d="M34.8983 47.8311H6.08331C2.72203 47.8311 0 45.1187 0 41.7694V13.0568C0 9.70752 2.72203 6.99516 6.08331 6.99516H34.8983C38.2596 6.99516 40.9817 9.70752 40.9817 13.0568V41.7694C40.9817 45.1187 43.7037 47.8311 47.065 47.8311H58.3133C60.3494 47.8311 62 49.4551 62 51.4586V64.3725C62 66.3759 60.3494 68 58.3133 68H44.6684C42.6323 68 40.9817 66.3759 40.9817 64.3725V53.8927C40.9817 50.5434 38.2596 47.8311 34.8983 47.8311Z" fill="white"/>
<path d="M12.3998 -0.000926971C12.3998 4.05435 15.7308 7.3418 19.8398 7.3418H12.3998V-0.000926971Z" fill="white"/>
<path d="M12.3998 55.3759C12.3998 51.3207 15.7308 48.0332 19.8398 48.0332H12.3998V55.3759Z" fill="white"/>
</svg>
