<svg width="200" height="224" viewBox="0 0 200 224" fill="none" xmlns="http://www.w3.org/2000/svg">
<path d="M87.4247 157.878H180.376C191.219 157.878 200 148.985 200 138.005V43.8727C200 32.8923 191.219 24 180.376 24H87.4247C76.5818 24 67.801 32.8923 67.801 43.8727V138.005C67.801 148.985 59.0202 157.878 48.1774 157.878H11.8926C5.32449 157.878 0 163.202 0 169.77V212.107C0 218.676 5.32448 224 11.8926 224H55.9084C62.4765 224 67.801 218.676 67.801 212.107V177.75C67.801 166.77 76.5818 157.878 87.4247 157.878Z" fill="#9FA0A1"/>
<path d="M87.4247 157.878H180.376C191.219 157.878 200 148.985 200 138.005V43.8727C200 32.8923 191.219 24 180.376 24H87.4247C76.5818 24 67.801 32.8923 67.801 43.8727V138.005C67.801 148.985 59.0202 157.878 48.1774 157.878H11.8926C5.32449 157.878 0 163.202 0 169.77V212.107C0 218.676 5.32448 224 11.8926 224H55.9084C62.4765 224 67.801 218.676 67.801 212.107V177.75C67.801 166.77 76.5818 157.878 87.4247 157.878Z" fill="white"/>
<path d="M160 0C160 13.2548 149.255 24 136 24H160V0Z" fill="white"/>
<path d="M160 181C160 167.745 149.255 157 136 157H160V181Z" fill="white"/>
</svg>
