<svg width="200" height="224" viewBox="0 0 200 224" fill="none" xmlns="http://www.w3.org/2000/svg">
<path d="M112.575 157.878H19.6236C8.78075 157.878 0 148.985 0 138.005V43.8727C0 32.8923 8.78075 24 19.6236 24H112.575C123.418 24 132.199 32.8923 132.199 43.8727V138.005C132.199 148.985 140.98 157.878 151.823 157.878H188.107C194.676 157.878 200 163.202 200 169.77V212.107C200 218.676 194.676 224 188.107 224H144.092C137.523 224 132.199 218.676 132.199 212.107V177.75C132.199 166.77 123.418 157.878 112.575 157.878Z" fill="#9FA0A1"/>
<path d="M112.575 157.878H19.6236C8.78075 157.878 0 148.985 0 138.005V43.8727C0 32.8923 8.78075 24 19.6236 24H112.575C123.418 24 132.199 32.8923 132.199 43.8727V138.005C132.199 148.985 140.98 157.878 151.823 157.878H188.107C194.676 157.878 200 163.202 200 169.77V212.107C200 218.676 194.676 224 188.107 224H144.092C137.523 224 132.199 218.676 132.199 212.107V177.75C132.199 166.77 123.418 157.878 112.575 157.878Z" fill="white"/>
<path d="M40 0C40 13.2548 50.7452 24 64 24H40V0Z" fill="white"/>
<path d="M40 181C40 167.745 50.7452 157 64 157H40V181Z" fill="white"/>
</svg>
