<svg width="66" height="91" viewBox="0 0 66 91" fill="none" xmlns="http://www.w3.org/2000/svg">
<path d="M35.9066 27.0755H74.0832C78.5365 27.0755 82.1428 30.7167 82.1428 35.2129V73.7577C82.1428 78.2539 78.5365 81.8951 74.0832 81.8951H35.9066C31.4533 81.8951 27.8468 78.2539 27.8468 73.7577V35.2129C27.8468 30.7167 24.2404 27.0755 19.7871 27.0755H4.88445C2.18684 27.0755 0 24.8953 0 22.2058V4.86969C0 2.18022 2.18684 -3.05176e-05 4.88444 -3.05176e-05H22.9624C25.66 -3.05176e-05 27.8468 2.18022 27.8468 4.86969V18.9381C27.8468 23.4343 31.4533 27.0755 35.9066 27.0755Z" fill="#9FA0A1"/>
<path d="M35.9066 27.0755H74.0832C78.5365 27.0755 82.1428 30.7167 82.1428 35.2129V73.7577C82.1428 78.2539 78.5365 81.8951 74.0832 81.8951H35.9066C31.4533 81.8951 27.8468 78.2539 27.8468 73.7577V35.2129C27.8468 30.7167 24.2404 27.0755 19.7871 27.0755H4.88445C2.18684 27.0755 0 24.8953 0 22.2058V4.86969C0 2.18022 2.18684 -3.05176e-05 4.88444 -3.05176e-05H22.9624C25.66 -3.05176e-05 27.8468 2.18022 27.8468 4.86969V18.9381C27.8468 23.4343 31.4533 27.0755 35.9066 27.0755Z" fill="white"/>
<path d="M65.7165 90.4684C65.7165 85.0245 61.3033 80.6113 55.8594 80.6113H65.7165V90.4684Z" fill="white"/>
<path d="M65.8571 17.6116C65.8571 23.0555 61.4439 27.4687 56 27.4687H65.8571V17.6116Z" fill="white"/>
</svg>
