<svg width="74" height="76" viewBox="0 0 74 76" fill="none" xmlns="http://www.w3.org/2000/svg">
<path d="M41.1156 25.1265L7.1657 25.1265C3.20544 25.1265 -0.00167084 28.5056 -0.00167084 32.6782L-0.00167084 68.4483C-0.00167084 72.6209 3.20544 76 7.1657 76L41.1156 76C45.0759 76 48.2831 72.6209 48.2831 68.4483L48.2831 32.6782C48.2831 28.5056 51.4902 25.1265 55.4504 25.1265L68.009 25.1265C70.7914 25.1265 73.0469 22.7799 73.0469 19.8851V5.24138C73.0469 2.34665 70.7914 0 68.009 0L53.3209 0C50.5386 0 48.2831 2.34665 48.2831 5.24138V17.5749C48.2831 21.7474 45.0759 25.1265 41.1156 25.1265Z" fill="white"/>
</svg>
