<svg width="73" height="75" viewBox="0 0 73 75" fill="none" xmlns="http://www.w3.org/2000/svg">
<path d="M31.5111 24.7959L65.0143 24.7959C68.9225 24.7959 72.0874 28.1305 72.0874 32.2482L72.0874 67.5477C72.0874 71.6654 68.9225 75 65.0143 75L31.5111 75C27.6029 75 24.438 71.6654 24.438 67.5477L24.438 32.2482C24.438 28.1305 21.2731 24.7959 17.3649 24.7959L4.97154 24.7959C2.22584 24.7959 0 22.4801 0 19.6235L0 5.17241C0 2.31577 2.22584 0 4.97155 0L19.4664 0C22.2121 0 24.438 2.31577 24.438 5.17242L24.438 17.3436C24.438 21.4613 27.6029 24.7959 31.5111 24.7959Z" fill="white"/>
</svg>
