<svg width="104" height="107" viewBox="0 0 104 107" fill="none" xmlns="http://www.w3.org/2000/svg">
<path d="M45.7996 71.6245L93.5975 71.6245C99.1731 71.6245 103.688 66.8671 103.688 60.9925V10.6319C103.688 4.75738 99.1731 0 93.5975 0H45.7996C40.2239 0 35.7086 4.75738 35.7086 10.6319L35.7086 60.9925C35.7086 66.8671 31.1933 71.6245 25.6177 71.6245H7.93648C4.01928 71.6245 0.84375 74.9283 0.84375 79.0038L0.84375 99.6207C0.84375 103.696 4.01928 107 7.93649 107H28.6159C32.5331 107 35.7086 103.696 35.7086 99.6207L35.7086 82.2564C35.7086 76.3819 40.2239 71.6245 45.7996 71.6245Z" fill="white"/>
</svg>
