<svg width="104" height="24" viewBox="0 0 104 24" fill="none" xmlns="http://www.w3.org/2000/svg">
<path d="M0.617188 8.86162L9.98974 8.8635L15.6889 8.86447V3.19922L0.617188 8.86162Z" fill="white"/>
<path d="M15.6875 3.19856V23.1998L22.8056 0.523438L15.6875 3.19856Z" fill="white"/>
<path d="M15.6874 8.86426L9.98828 8.86328L15.6874 23.2002V8.86426Z" fill="white"/>
<path d="M0.617188 8.86133L11.4512 12.5419L9.98974 8.86321L0.617188 8.86133Z" fill="white"/>
<path d="M35.1401 17.9348C35.0574 18.0177 34.9197 18.1212 34.7272 18.2454C34.5343 18.3698 34.2833 18.4941 33.9737 18.6185C33.664 18.7426 33.2853 18.8494 32.8383 18.9395C32.3908 19.0291 31.8783 19.0741 31.3003 19.0741C30.1854 19.0741 29.222 18.8944 28.4101 18.5356C27.5978 18.1768 26.927 17.6758 26.3973 17.0338C25.8673 16.3916 25.4787 15.6323 25.2309 14.7552C24.9832 13.8783 24.8594 12.9152 24.8594 11.8656C24.8594 10.8163 24.9935 9.84599 25.2619 8.9553C25.5302 8.06455 25.9328 7.29498 26.4695 6.64563C27.0063 5.99676 27.6772 5.48919 28.4824 5.12312C29.2875 4.75746 30.2335 4.57422 31.3209 4.57422C31.8577 4.57422 32.3428 4.62271 32.7763 4.7192C33.2099 4.8159 33.5882 4.92992 33.9118 5.06099C34.235 5.19241 34.5034 5.33022 34.7169 5.47527C34.9301 5.62025 35.0918 5.74137 35.2021 5.83772C35.3259 5.94848 35.4324 6.07955 35.5221 6.23127C35.6114 6.38342 35.6562 6.54913 35.6562 6.72848C35.6562 7.00488 35.553 7.28093 35.3466 7.55704C35.1402 7.83344 34.9131 8.0889 34.6653 8.32348C34.5001 8.15777 34.3144 7.98886 34.108 7.81605C33.9015 7.64345 33.6709 7.49172 33.4164 7.3603C33.1616 7.22924 32.8725 7.11883 32.5493 7.02888C32.2258 6.9392 31.8645 6.89419 31.4655 6.89419C30.7636 6.89419 30.1753 7.03597 29.7004 7.31884C29.2256 7.60205 28.8437 7.97133 28.5547 8.42707C28.2657 8.88281 28.0592 9.40416 27.9353 9.99097C27.8115 10.5781 27.7496 11.1752 27.7496 11.7828C27.7496 12.432 27.8115 13.0534 27.9353 13.6469C28.0592 14.2408 28.2724 14.7657 28.5754 15.2212C28.8779 15.6769 29.2737 16.043 29.7624 16.319C30.2507 16.5955 30.8597 16.7334 31.5894 16.7334C31.9744 16.7334 32.329 16.6851 32.6525 16.5884C32.9757 16.4919 33.2615 16.3744 33.5092 16.2361C33.7569 16.0983 33.9737 15.9534 34.1595 15.8013C34.3453 15.6494 34.5001 15.5184 34.624 15.4077C34.7066 15.5045 34.8027 15.622 34.913 15.7599C35.0239 15.8992 35.1272 16.0444 35.2226 16.1949C35.3188 16.347 35.4014 16.4988 35.4704 16.6504C35.5391 16.8026 35.5735 16.9405 35.5735 17.0646C35.5735 17.2444 35.5391 17.3962 35.4704 17.5205C35.4013 17.6448 35.2913 17.783 35.1401 17.9348ZM45.7788 16.3461C45.7788 17.4437 45.9377 18.2426 46.2564 18.7427C46.0072 18.8398 45.7752 18.9093 45.5606 18.951C45.3458 18.9927 45.121 19.0135 44.8857 19.0135C44.3873 19.0135 44.0099 18.9162 43.7539 18.7218C43.4976 18.5275 43.3349 18.2496 43.2658 17.8882C42.9611 18.2081 42.5596 18.4788 42.0612 18.7012C41.5628 18.923 40.9534 19.0345 40.2336 19.0345C39.8598 19.0345 39.486 18.9824 39.1122 18.8789C38.7382 18.7746 38.3989 18.6052 38.0944 18.3701C37.7897 18.1345 37.5406 17.8194 37.3468 17.4247C37.1527 17.0299 37.056 16.5488 37.056 15.9811C37.056 15.2749 37.2255 14.6999 37.5648 14.257C37.904 13.8136 38.3297 13.464 38.8422 13.2078C39.3543 12.9517 39.9082 12.7755 40.5037 12.6783C41.0988 12.5813 41.6459 12.5192 42.1443 12.4911C42.3106 12.4774 42.4731 12.4703 42.6324 12.4703H43.0789V12.091C43.0789 11.557 42.9368 11.1776 42.6531 10.953C42.3692 10.7283 41.9087 10.6156 41.272 10.6156C40.6766 10.6156 40.147 10.713 39.6833 10.9073C39.2192 11.1021 38.7658 11.3241 38.3229 11.5742C38.1289 11.3381 37.973 11.0777 37.8556 10.7928C37.7379 10.5082 37.6791 10.2962 37.6791 10.1572C37.6791 9.9628 37.7862 9.77524 38.001 9.5945C38.2155 9.41418 38.5099 9.25069 38.8837 9.10481C39.2576 8.95892 39.6866 8.84107 40.1714 8.75056C40.6559 8.66033 41.1682 8.61511 41.7083 8.61511C42.4559 8.61511 43.0893 8.69164 43.6085 8.84434C44.1277 8.99739 44.55 9.23344 44.8754 9.55283C45.2006 9.87264 45.4326 10.2718 45.5711 10.7511C45.7094 11.2304 45.7788 11.7898 45.7788 12.4286L45.7788 16.3461ZM43.1203 13.9289H42.8297C42.7325 13.9289 42.6355 13.9361 42.5389 13.9498C42.1926 13.9778 41.8499 14.0194 41.5109 14.0747C41.1714 14.1304 40.8702 14.2277 40.6075 14.3666C40.3443 14.5056 40.1298 14.6863 39.9636 14.9083C39.7974 15.1307 39.7144 15.4157 39.7144 15.7628C39.7144 16.1518 39.825 16.4816 40.0466 16.7526C40.2679 17.0235 40.6418 17.159 41.1682 17.159C41.431 17.159 41.6803 17.1245 41.9159 17.0546C42.1511 16.9855 42.3588 16.8951 42.5389 16.7839C42.7187 16.6728 42.8608 16.5513 42.9647 16.4191C43.0685 16.2873 43.1204 16.1658 43.1204 16.0546L43.1203 13.9289ZM50.9498 9.82366C51.1705 9.55993 51.5158 9.29229 51.9849 9.02133C52.4542 8.75042 53.0477 8.61497 53.7655 8.61497C54.2763 8.61497 54.7628 8.70187 55.2253 8.87544C55.6873 9.04929 56.0981 9.3307 56.457 9.71945C56.8159 10.1085 57.1023 10.6227 57.3164 11.2615C57.5303 11.9007 57.6373 12.6858 57.6373 13.6163C57.6373 14.6999 57.5129 15.5927 57.2646 16.2941C57.016 16.9959 56.6953 17.5516 56.3021 17.9613C55.9087 18.3711 55.4702 18.6594 54.9874 18.8261C54.5042 18.9927 54.021 19.0762 53.5381 19.0762C53.1378 19.0762 52.7891 19.031 52.4927 18.9408C52.1957 18.8503 51.9439 18.7499 51.7369 18.6386C51.5298 18.5275 51.3712 18.4166 51.2609 18.3051C51.1505 18.1941 51.0814 18.1175 51.0539 18.0758V23.1984H48.2293V8.90668C48.2988 8.89304 48.3825 8.87906 48.4804 8.86507C48.5642 8.85144 48.6619 8.84093 48.7735 8.83377C48.885 8.82695 49.0176 8.8234 49.171 8.8234C49.6311 8.8234 50.0218 8.89993 50.3427 9.05263C50.6635 9.20568 50.8661 9.46253 50.9498 9.82366ZM54.6882 13.6787C54.6882 13.262 54.6537 12.8733 54.5849 12.5119C54.5162 12.1508 54.4026 11.8382 54.2442 11.5741C54.0859 11.3103 53.8723 11.1053 53.6039 10.9593C53.3352 10.8135 53.0085 10.7406 52.6232 10.7406C52.045 10.7406 51.6424 10.852 51.4151 11.0739C51.188 11.2964 51.0744 11.5396 51.0744 11.8034V16.2213C51.1844 16.3326 51.3803 16.4643 51.6627 16.6172C51.9451 16.7702 52.2718 16.8463 52.6437 16.8463C53.3459 16.8463 53.8621 16.5687 54.1926 16.0128C54.523 15.4573 54.6882 14.6791 54.6882 13.6787ZM59.8173 17.2632C59.7202 16.9855 59.658 16.6936 59.6304 16.3879C59.6025 16.0824 59.5889 15.7769 59.5889 15.4708V5.80169C59.6856 5.78805 59.7894 5.77407 59.9004 5.76002C59.997 5.74638 60.1009 5.73602 60.2118 5.72878C60.3225 5.72196 60.4332 5.71841 60.5441 5.71841C60.7654 5.71841 60.9872 5.73928 61.2088 5.78089C61.43 5.82263 61.6309 5.90597 61.8111 6.03092C61.9909 6.15593 62.1362 6.32631 62.2472 6.54148C62.3579 6.757 62.4133 7.03841 62.4133 7.38542V8.86493H65.321V10.9698H62.4133V15.4136C62.4133 16.3827 62.8079 16.8671 63.5972 16.8671C63.7909 16.8671 63.9742 16.836 64.1475 16.7734C64.3205 16.7109 64.4762 16.6415 64.6148 16.5651C64.7531 16.4887 64.8744 16.4088 64.9783 16.3254C65.0821 16.242 65.1548 16.1796 65.1963 16.1379C65.404 16.4437 65.563 16.7085 65.674 16.9318C65.7846 17.1555 65.8401 17.3654 65.8401 17.5615C65.8401 17.744 65.7676 17.9229 65.622 18.0981C65.4765 18.2733 65.2722 18.4348 65.0093 18.5819C64.7462 18.7291 64.4279 18.8482 64.054 18.9394C63.6802 19.0307 63.2716 19.0763 62.8287 19.0763C61.97 19.0763 61.3021 18.9095 60.8244 18.5762C60.3468 18.2426 60.0109 17.8049 59.8173 17.2632ZM72.4745 16.9922C72.8218 16.9922 73.1274 16.9542 73.3917 16.8776C73.6555 16.8015 73.8916 16.7076 74.1001 16.5964C74.3084 16.4854 74.4892 16.3638 74.6421 16.2318C74.7948 16.0999 74.9337 15.9783 75.0591 15.867C75.2255 16.0752 75.3991 16.3429 75.5799 16.6691C75.7604 16.9959 75.8508 17.2632 75.8508 17.4715C75.8508 17.7772 75.6776 18.0551 75.3318 18.3051C75.041 18.5275 74.6287 18.7186 74.096 18.8781C73.5628 19.0377 72.9361 19.1178 72.2165 19.1178C71.5654 19.1178 70.9251 19.0345 70.2954 18.8677C69.6653 18.7011 69.1044 18.4093 68.6131 17.9924C68.1214 17.5758 67.7233 17.0167 67.4188 16.315C67.1142 15.6135 66.962 14.728 66.962 13.658C66.962 12.7827 67.097 12.0293 67.3668 11.397C67.6369 10.765 67.9968 10.2405 68.4471 9.82373C68.8967 9.40694 69.4056 9.10154 69.9734 8.90675C70.541 8.71244 71.1226 8.61504 71.718 8.61504C72.4933 8.61504 73.1509 8.73686 73.6909 8.97972C74.231 9.22293 74.6703 9.54949 75.0098 9.95918C75.3488 10.369 75.5945 10.8379 75.747 11.3658C75.8991 11.8939 75.9754 12.4494 75.9754 13.0329V13.3246C75.9754 13.436 75.9719 13.5538 75.965 13.6788C75.958 13.804 75.9512 13.9257 75.9444 14.0435C75.9372 14.1618 75.9268 14.2555 75.9133 14.3249H69.7865C69.842 15.089 70.0782 15.7245 70.4949 16.2318C70.9114 16.739 71.5714 16.9922 72.4745 16.9922ZM73.4209 12.7619C73.4209 12.0951 73.292 11.5533 73.0344 11.1365C72.7768 10.7198 72.3135 10.5113 71.6455 10.5113C71.0743 10.5113 70.6183 10.7093 70.2773 11.1053C69.9359 11.5012 69.7657 12.0534 69.7657 12.7618L73.4209 12.7619ZM80.8908 9.87632C80.9737 9.75235 81.0844 9.61461 81.223 9.46281C81.3613 9.31115 81.531 9.17333 81.7318 9.04936C81.9324 8.92532 82.154 8.82173 82.3965 8.73908C82.6384 8.65637 82.8982 8.61504 83.1754 8.61504C83.3414 8.61504 83.518 8.62903 83.7049 8.65637C83.8918 8.68406 84.0647 8.73582 84.224 8.81137C84.3831 8.88727 84.5113 8.99044 84.6083 9.12136C84.705 9.25229 84.7537 9.41411 84.7537 9.60688C84.7537 9.90999 84.6773 10.2581 84.5252 10.6511C84.3727 11.0445 84.2206 11.3798 84.0684 11.6576C83.8327 11.4631 83.5974 11.3138 83.3621 11.2095C83.1266 11.1054 82.8497 11.0532 82.5314 11.0532C82.1021 11.0532 81.7422 11.1786 81.4516 11.4293C81.1606 11.68 81.0153 11.9796 81.0153 12.3279V19.0739H78.1909V8.90668C78.26 8.89304 78.343 8.87906 78.44 8.86507C78.5231 8.85144 78.62 8.84093 78.7308 8.83377C78.8415 8.82695 78.9729 8.8234 79.1254 8.8234C79.5684 8.8234 79.9525 8.9096 80.2781 9.08164C80.6032 9.25348 80.8077 9.51853 80.8908 9.87632ZM88.9212 9.87632C89.0042 9.75235 89.1149 9.61461 89.2535 9.46281C89.3917 9.31115 89.5614 9.17333 89.7623 9.04936C89.9629 8.92532 90.1844 8.82173 90.4269 8.73908C90.669 8.65637 90.9286 8.61504 91.2057 8.61504C91.3717 8.61504 91.5483 8.62903 91.7352 8.65637C91.922 8.68406 92.0951 8.73582 92.2544 8.81137C92.4135 8.88727 92.5415 8.99044 92.6388 9.12136C92.7355 9.25229 92.7841 9.41411 92.7841 9.60688C92.7841 9.90999 92.7077 10.2581 92.5557 10.6511C92.403 11.0445 92.2509 11.3798 92.0987 11.6576C91.8632 11.4631 91.6277 11.3138 91.3925 11.2095C91.1571 11.1054 90.8802 11.0532 90.5619 11.0532C90.1326 11.0532 89.7726 11.1786 89.4819 11.4293C89.1911 11.68 89.0458 11.9796 89.0458 12.3279V19.0739H86.2213V8.90668C86.2904 8.89304 86.3735 8.87906 86.4706 8.86507C86.5536 8.85144 86.6505 8.84093 86.7613 8.83377C86.8719 8.82695 87.0033 8.8234 87.1558 8.8234C87.5989 8.8234 87.9831 8.9096 88.3084 9.08164C88.6336 9.25348 88.838 9.51853 88.9212 9.87632ZM102.4 16.3461C102.4 17.4437 102.559 18.2426 102.878 18.7427C102.628 18.8398 102.396 18.9093 102.182 18.951C101.967 18.9927 101.742 19.0135 101.507 19.0135C101.008 19.0135 100.631 18.9162 100.375 18.7218C100.119 18.5275 99.9562 18.2496 99.887 17.8882C99.5824 18.2081 99.1809 18.4788 98.6824 18.7012C98.1841 18.923 97.5746 19.0345 96.8549 19.0345C96.481 19.0345 96.1073 18.9824 95.7333 18.8789C95.3595 18.7746 95.02 18.6052 94.7157 18.3701C94.411 18.1345 94.1618 17.8194 93.968 17.4247C93.774 17.0299 93.6774 16.5488 93.6774 15.9811C93.6774 15.2749 93.8466 14.6999 94.1862 14.257C94.5252 13.8136 94.9511 13.464 95.4634 13.2078C95.9755 12.9517 96.5293 12.7755 97.1249 12.6783C97.72 12.5813 98.2672 12.5192 98.7656 12.4911C98.9318 12.4774 99.0943 12.4703 99.2538 12.4703H99.7002V12.091C99.7002 11.557 99.558 11.1776 99.2744 10.953C98.9903 10.7283 98.53 10.6156 97.8932 10.6156C97.2979 10.6156 96.7683 10.713 96.3045 10.9073C95.8405 11.1021 95.3872 11.3241 94.9441 11.5742C94.7502 11.3381 94.5942 11.0777 94.4768 10.7928C94.3592 10.5082 94.3004 10.2962 94.3004 10.1572C94.3004 9.9628 94.4074 9.77524 94.6223 9.5945C94.8368 9.41418 95.1311 9.25069 95.5049 9.10481C95.8788 8.95892 96.3078 8.84107 96.7925 8.75056C97.2771 8.66033 97.7894 8.61511 98.3294 8.61511C99.077 8.61511 99.7105 8.69164 100.23 8.84434C100.749 8.99739 101.171 9.23344 101.497 9.55283C101.822 9.87264 102.054 10.2718 102.192 10.7511C102.33 11.2304 102.4 11.7898 102.4 12.4286V16.3461ZM99.7416 13.9289H99.4509C99.3538 13.9289 99.2568 13.9361 99.1602 13.9498C98.814 13.9778 98.4711 14.0194 98.1321 14.0747C97.7926 14.1304 97.4916 14.2277 97.2287 14.3666C96.9656 14.5056 96.751 14.6863 96.5848 14.9083C96.4187 15.1307 96.3356 15.4157 96.3356 15.7628C96.3356 16.1518 96.4463 16.4816 96.6679 16.7526C96.8892 17.0235 97.2632 17.159 97.7894 17.159C98.0524 17.159 98.3016 17.1245 98.5371 17.0546C98.7725 16.9855 98.98 16.8951 99.1602 16.7839C99.3398 16.6728 99.4821 16.5513 99.5859 16.4191C99.6897 16.2873 99.7417 16.1658 99.7417 16.0546L99.7416 13.9289Z" fill="white"/>
</svg>
