<svg width="85" height="85" viewBox="0 0 85 85" fill="none" xmlns="http://www.w3.org/2000/svg">
<path d="M28.102 47.8445L28.102 8.34003C28.102 3.73182 31.8813 1.98927e-06 36.548 1.93362e-06L76.5541 1.45655e-06C81.2208 1.4009e-06 85 3.73182 85 8.34003L85 47.8445C85 52.4527 81.2208 56.1846 76.5541 56.1846L36.548 56.1846C31.8813 56.1846 28.102 59.9164 28.102 64.5246L28.102 79.1379C28.102 82.3755 25.4775 85 22.24 85L5.86207 85C2.62454 85 -3.12974e-08 82.3755 -6.99045e-08 79.1379L-2.73716e-07 62.0467C-3.12323e-07 58.8091 2.62454 56.1846 5.86207 56.1846L19.6561 56.1846C24.3228 56.1846 28.102 52.4527 28.102 47.8445Z" fill="white"/>
</svg>
