<svg width="68" height="36" viewBox="0 0 68 36" fill="none" xmlns="http://www.w3.org/2000/svg">
<path d="M45.5184 29.7244L45.5184 36L4.29296e-07 36L3.5446e-07 29.7244C3.10498e-07 26.0378 3.02338 23.0523 6.75674 23.0523L38.7616 23.0523C42.495 23.0523 45.5184 20.0669 45.5184 16.3803L45.5184 4.68966C45.5184 2.09963 47.618 2.43053e-07 50.208 2.12167e-07L63.3103 5.59236e-08C65.9004 2.50378e-08 68 2.09963 68 4.68966L68 18.3627C68 20.9527 65.9004 23.0523 63.3103 23.0523L52.2751 23.0523C48.5418 23.0523 45.5184 26.0378 45.5184 29.7244Z" fill="white"/>
</svg>
