<svg width="101" height="102" viewBox="0 0 101 102" fill="none" xmlns="http://www.w3.org/2000/svg">
<path d="M33.3918 57.4134L33.3918 10.008C33.3918 4.47819 37.8825 7.17765e-06 43.4276 7.11153e-06L90.9643 6.54466e-06C96.5094 6.47853e-06 101 4.47819 101 10.008L101 57.4134C101 62.9433 96.5094 67.4215 90.9643 67.4215L43.4276 67.4215C37.8825 67.4215 33.3918 71.8997 33.3918 77.4295L33.3918 94.9655C33.3918 98.8506 30.2733 102 26.4263 102L6.96552 102C3.11857 102 -3.75568e-08 98.8505 -8.38854e-08 94.9655L-3.28459e-07 74.456C-3.74788e-07 70.5709 3.11857 67.4215 6.96552 67.4215L23.3561 67.4215C28.9012 67.4215 33.3918 62.9433 33.3918 57.4134Z" fill="white"/>
</svg>
