<svg width="32" height="32" viewBox="0 0 32 32" fill="none" xmlns="http://www.w3.org/2000/svg">
<g clip-path="url(#clip0_1614_2434)">
<path d="M10.6693 28.0006H1.33594V1.33398H30.6693V14.6673" stroke="#FCDA01" stroke-width="2" stroke-linejoin="round"/>
<path d="M6.66927 6.66667C7.40564 6.66667 8.0026 6.06971 8.0026 5.33333C8.0026 4.59696 7.40564 4 6.66927 4C5.9329 4 5.33594 4.59696 5.33594 5.33333C5.33594 6.06971 5.9329 6.66667 6.66927 6.66667Z" fill="#FCDA01"/>
<path d="M11.9974 6.66667C12.7338 6.66667 13.3307 6.06971 13.3307 5.33333C13.3307 4.59696 12.7338 4 11.9974 4C11.261 4 10.6641 4.59696 10.6641 5.33333C10.6641 6.06971 11.261 6.66667 11.9974 6.66667Z" fill="#FCDA01"/>
<path d="M1.33594 9.33398H30.6693" stroke="#FCDA01" stroke-width="2" stroke-linejoin="round"/>
<path d="M30.6667 24.0007C30.6667 24.0007 26.6667 30.6673 21.3333 30.6673C16 30.6673 12 24.0007 12 24.0007C12 24.0007 16 17.334 21.3333 17.334C26.6667 17.334 30.6667 24.0007 30.6667 24.0007Z" stroke="#FCDA01" stroke-width="2" stroke-linejoin="round"/>
<path d="M21.3307 26.6673C22.8035 26.6673 23.9974 25.4735 23.9974 24.0007C23.9974 22.5279 22.8035 21.334 21.3307 21.334C19.8579 21.334 18.6641 22.5279 18.6641 24.0007C18.6641 25.4735 19.8579 26.6673 21.3307 26.6673Z" fill="#FCDA01"/>
</g>
<defs>
<clipPath id="clip0_1614_2434">
<rect width="32" height="32" fill="white"/>
</clipPath>
</defs>
</svg>
