<svg width="93" height="103" viewBox="0 0 93 103" fill="none" xmlns="http://www.w3.org/2000/svg">
<path d="M52.9959 90.9219V53.8088C52.9959 47.1352 58.3758 41.7307 65.019 41.7307H84.6552C89.2639 41.7307 93 37.9298 93 33.2412V8.48949C93 3.80088 89.2639 0 84.6552 0H61.3408C56.732 0 52.9959 3.80087 52.9959 8.48949V29.6526C52.9959 36.3262 47.6161 41.7307 40.9729 41.7307H-15.977C-22.6202 41.7307 -28 47.1352 -28 53.8088L-28 88.8838C-28 88.8866 -28 88.8894 -28 88.8922V97.4675C-28 100.523 -25.5376 103 -22.5 103H40.9729C47.6161 103 52.9959 97.5956 52.9959 90.9219Z" fill="white"/>
</svg>
