<svg width="32" height="32" viewBox="0 0 32 32" fill="none" xmlns="http://www.w3.org/2000/svg">
<path d="M16.0001 18.2347C18.2741 18.2347 20.1175 16.3913 20.1175 14.1173C20.1175 11.8434 18.2741 10 16.0001 10C13.7261 10 11.8828 11.8434 11.8828 14.1173C11.8828 16.3913 13.7261 18.2347 16.0001 18.2347Z" stroke="#FCDA01" stroke-width="2" stroke-linejoin="round"/>
<path d="M7.76953 30.0003C7.76953 27.8163 8.6371 25.7218 10.1814 24.1775C11.7257 22.6332 13.8202 21.7656 16.0042 21.7656C18.1882 21.7656 20.2827 22.6332 21.827 24.1775C23.3713 25.7218 24.2389 27.8163 24.2389 30.0003H7.76953Z" stroke="#FCDA01" stroke-width="2" stroke-linejoin="round"/>
<path d="M25.3307 16.6667V11.3333C25.3307 8.85797 24.3474 6.48401 22.597 4.73367C20.8467 2.98333 18.4727 2 15.9974 2C13.5221 2 11.1481 2.98333 9.39773 4.73367C7.6474 6.48401 6.66406 8.85797 6.66406 11.3333V16.6667" stroke="#FCDA01" stroke-width="2" stroke-linejoin="round"/>
<path d="M25.3359 10H26.0026C26.8866 10 27.7345 10.3512 28.3597 10.9763C28.9847 11.6014 29.3359 12.4493 29.3359 13.3333C29.3359 14.2173 28.9847 15.0652 28.3597 15.6904C27.7345 16.3155 26.8866 16.6667 26.0026 16.6667H25.3359V10Z" stroke="#FCDA01" stroke-width="2" stroke-linejoin="round"/>
<path d="M5.9974 10H6.66406V16.6667H5.9974C5.11334 16.6667 4.26549 16.3155 3.64037 15.6904C3.01525 15.0652 2.66406 14.2173 2.66406 13.3333C2.66406 12.4493 3.01525 11.6014 3.64037 10.9763C4.26549 10.3512 5.11334 10 5.9974 10Z" stroke="#FCDA01" stroke-width="2" stroke-linejoin="round"/>
</svg>
