<svg width="201" height="181" viewBox="0 0 201 181" fill="none" xmlns="http://www.w3.org/2000/svg">
<path d="M120.992 180.961V107.095C120.992 93.8128 131.752 83.0562 145.038 83.0562H184.31C193.528 83.0562 201 75.4913 201 66.1597V16.8966C201 7.56486 193.528 0 184.31 0H137.682C128.464 0 120.992 7.56485 120.992 16.8966V59.0173C120.992 72.2997 110.232 83.0562 96.9458 83.0562H-16.954C-30.2403 83.0562 -41 93.8128 -41 107.095L-41 176.905C-41 176.91 -41 176.916 -41 176.921V193.989C-41 200.07 -36.0751 205 -30 205H96.9458C110.232 205 120.992 194.244 120.992 180.961Z" fill="white"/>
<path d="M121 151C121 167.569 134.431 181 151 181L121 181L121 151Z" fill="white"/>
</svg>
