<svg width="29" height="29" viewBox="0 0 29 29" fill="none" xmlns="http://www.w3.org/2000/svg">
<g clip-path="url(#clip0_1614_2478)">
<path d="M17.5527 20.506C15.41 20.506 13.355 19.6622 11.8399 18.1601C10.3248 16.6581 9.47358 14.6208 9.47358 12.4965V11.1616H12.1666V1.81836H6.78172C5.71037 1.81836 4.6829 2.24029 3.92534 2.99132C3.16778 3.74236 2.74219 4.76099 2.74219 5.82311V9.75984C2.7425 14.3797 4.59382 18.8103 7.88893 22.077C11.1841 25.3438 15.6531 27.1791 20.3131 27.1795H22.9375C24.0089 27.1795 25.0364 26.7575 25.7939 26.0065C26.5515 25.2555 26.9771 24.2369 26.9771 23.1747V17.842H17.5585L17.5527 20.506Z" stroke="#1D252C" stroke-width="2.65781" stroke-linejoin="round"/>
</g>
<defs>
<clipPath id="clip0_1614_2478">
<rect width="27.907" height="27.6667" fill="white" transform="translate(0.90625 0.666016)"/>
</clipPath>
</defs>
</svg>
