<svg width="39" height="34" viewBox="0 0 39 34" fill="none" xmlns="http://www.w3.org/2000/svg">
<path d="M21.4191 16.2L44.1922 16.2C46.8487 16.2 49 18.3786 49 21.0688L49 44.1312C49 46.8214 46.8487 49 44.1922 49L21.4191 49C18.7626 49 16.6112 46.8214 16.6112 44.1312L16.6112 21.0688C16.6112 18.3786 14.46 16.2 11.8035 16.2L3.37931 16.2C1.51297 16.2 1.28398e-06 14.687 1.12082e-06 12.8207L2.95429e-07 3.37931C1.32268e-07 1.51297 1.51297 -1.32268e-07 3.37931 -2.95429e-07L13.2319 -1.15677e-06C15.0983 -1.31993e-06 16.6112 1.51297 16.6112 3.37931L16.6112 11.3312C16.6112 14.0214 18.7626 16.2 21.4191 16.2Z" fill="white"/>
<path d="M39.3053 9.17123C39.3053 13.0786 36.1378 16.2461 32.2305 16.2461H39.3053V9.17123Z" fill="white"/>
<path d="M16.7702 29.6087C16.7702 33.5161 13.6027 36.6836 9.69531 36.6836H16.7702V29.6087Z" fill="white"/>
</svg>
