<svg width="28" height="29" viewBox="0 0 28 29" fill="none" xmlns="http://www.w3.org/2000/svg">
<path d="M16.5527 20.506C14.41 20.506 12.355 19.6622 10.8399 18.1601C9.32477 16.6581 8.47358 14.6208 8.47358 12.4965V11.1616H11.1666V1.81836H5.78172C4.71037 1.81836 3.6829 2.24029 2.92534 2.99132C2.16778 3.74236 1.74219 4.76099 1.74219 5.82311V9.75984C1.7425 14.3797 3.59382 18.8103 6.88893 22.077C10.1841 25.3438 14.6531 27.1791 19.3131 27.1795H21.9375C23.0089 27.1795 24.0364 26.7575 24.7939 26.0065C25.5515 25.2555 25.9771 24.2369 25.9771 23.1747V17.842H16.5585L16.5527 20.506Z" stroke="#1D252C" stroke-width="2.65781" stroke-linejoin="round"/>
</svg>
