<svg width="58" height="51" viewBox="0 0 58 51" fill="none" xmlns="http://www.w3.org/2000/svg">
<path d="M35.407 24.2204L73.0524 24.2204C77.4438 24.2204 81 20.619 81 16.1719L81 -21.9515C81 -26.3986 77.4438 -30 73.0524 -30L35.407 -30C31.0156 -30 27.4594 -26.3986 27.4594 -21.9515L27.4594 16.1719C27.4594 20.619 23.9032 24.2204 19.5118 24.2204L5.58621 24.2204C2.50103 24.2204 2.1225e-06 26.7214 1.85278e-06 29.8066L4.88362e-07 45.4138C2.18647e-07 48.499 2.50103 51 5.58621 51L21.8732 51C24.9584 51 27.4594 48.499 27.4594 45.4138L27.4594 32.2689C27.4594 27.8218 31.0156 24.2204 35.407 24.2204Z" fill="white"/>
</svg>
