<svg width="100" height="83" viewBox="0 0 100 83" fill="none" xmlns="http://www.w3.org/2000/svg">
<path d="M97.5375 66.4H85.873C84.5124 66.4 83.3333 65.3694 83.3333 64.0079V19.1361C83.3333 17.7746 82.3086 16.6 80.9479 16.6H69.2835C67.9229 16.6 66.6667 15.4254 66.6667 14.0639V2.3921C66.6667 1.03059 65.7191 0 64.3584 0H19.0521C17.6914 0 16.6667 1.1746 16.6667 2.53611V14.2079C16.6667 15.5694 15.4876 16.6 14.127 16.6H2.46255C1.1019 16.6 0 17.7026 0 19.0641V63.9359C0 65.2974 1.1019 66.4 2.46255 66.4H14.127C15.4876 66.4 16.6667 67.5746 16.6667 68.9361V80.6079C16.6667 81.9694 17.6914 83 19.0521 83H64.3584C65.7191 83 66.6667 81.8254 66.6667 80.4639V68.7921C66.6667 67.4306 67.9229 66.4 69.2835 66.4H80.9479C82.3086 66.4 83.3333 67.5746 83.3333 68.9361V80.6079C83.3333 81.9694 84.5124 83 85.873 83H97.5375C98.8981 83 100 81.8974 100 80.5359V68.8641C100 67.5026 98.8981 66.4 97.5375 66.4ZM64.3584 66.4H19.0521C17.6914 66.4 16.6667 65.3694 16.6667 64.0079V19.1361C16.6667 17.7746 17.6914 16.6 19.0521 16.6H64.3584C65.7191 16.6 66.6667 17.6306 66.6667 18.9921V63.8639C66.6667 65.2254 65.7191 66.4 64.3584 66.4Z" fill="#1D252C" fill-opacity="0.1"/>
</svg>
