<svg width="140" height="140" viewBox="0 0 140 140" fill="none" xmlns="http://www.w3.org/2000/svg">
<path d="M71.5 86L147.72 86C156.612 86 164 78.4879 164 69.4839L164 -7.70433C164 -16.7083 156.8 -24 147.909 -24L71.6882 -24C62.7971 -24 55 -16.898 55 -7.89399L55 69.2942C55 78.2982 48.2083 86 39.3172 86L11.1221 86C4.87558 86 4.29741e-06 90.8434 3.75132e-06 97.0899L9.88782e-07 128.69C4.42693e-07 134.936 5.06382 140 11.3104 140L44.2865 140C50.533 140 55 134.747 55 128.5L55 101.886C55 92.8816 62.6089 86 71.5 86Z" fill="white"/>
<path d="M140 110C140 96.7452 129.255 86 116 86L140 86L140 110Z" fill="white"/>
<path d="M55 24C55 10.7452 44.2548 2.31755e-06 31 0L55 4.19629e-06L55 24Z" fill="white"/>
</svg>
