<svg width="140" height="139" viewBox="0 0 140 139" fill="none" xmlns="http://www.w3.org/2000/svg">
<path d="M54 71.5L54 147.72C54 156.612 61.5121 164 70.5161 164L147.704 164C156.708 164 164 156.8 164 147.909L164 71.6883C164 62.7971 156.898 55 147.894 55L70.7058 55C61.7018 55 54 48.2083 54 39.3172L54 11.1221C54 4.87558 49.1566 6.44611e-06 42.9101 5.62697e-06L11.3103 1.48317e-06C5.06381 6.64039e-07 -6.6404e-07 5.06382 -1.48317e-06 11.3104L-5.80747e-06 44.2865C-6.6266e-06 50.533 5.25347 55 11.5 55L38.1144 55C47.1184 55 54 62.6089 54 71.5Z" fill="white"/>
<path d="M30 140C43.2548 140 54 129.255 54 116L54 140L30 140Z" fill="white"/>
<path d="M116 55C129.255 55 140 44.2548 140 31L140 55L116 55Z" fill="white"/>
</svg>
