<svg width="151" height="108" viewBox="0 0 151 108" fill="none" xmlns="http://www.w3.org/2000/svg">
<path d="M84.9944 58.0776L14.8158 58.0776C6.62948 58.0776 1.03075e-05 51.3639 9.58274e-06 43.0736L3.36963e-06 -27.9961C2.64488e-06 -36.2863 6.62947 -43 14.8158 -43L84.9944 -43C93.1807 -43 99.8103 -36.2863 99.8103 -27.9961L99.8103 43.0736C99.8103 51.3638 106.44 58.0776 114.626 58.0776L140.586 58.0775C146.338 58.0775 151 62.74 151 68.4914L151 97.5862C151 103.338 146.338 108 140.586 108L110.224 108C104.473 108 99.8103 103.338 99.8103 97.5862L99.8103 73.0815C99.8103 64.7913 93.1807 58.0776 84.9944 58.0776Z" fill="white"/>
</svg>
