<svg width="78" height="24" viewBox="0 0 78 24" fill="none" xmlns="http://www.w3.org/2000/svg">
<path d="M9.75697 8.56364V11.1273H16.0572C15.8899 12.5455 15.3881 13.6364 14.6076 14.3455C13.7155 15.2182 12.2659 16.2 9.75697 16.2C5.90994 16.2 2.89921 13.1455 2.89921 9.38182C2.89921 5.61818 5.85418 2.56364 9.75697 2.56364C11.8199 2.56364 13.381 3.38182 14.4961 4.41818L16.336 2.61818C14.7748 1.14545 12.6562 0 9.75697 0C4.46033 0 0 4.2 0 9.38182C0 14.5636 4.46033 18.7636 9.75697 18.7636C12.6004 18.7636 14.7748 17.8364 16.4475 16.1455C18.1758 14.4545 18.7334 12.0545 18.7334 10.1455C18.7334 9.54545 18.6776 9 18.6219 8.56364H9.75697Z" fill="white"/>
<path d="M26.5413 6.43555C23.1403 6.43555 20.2969 8.99918 20.2969 12.4901C20.2969 15.981 23.0846 18.5446 26.5413 18.5446C29.9981 18.5446 32.7858 16.0355 32.7858 12.5446C32.7858 8.99918 29.9981 6.43555 26.5413 6.43555ZM26.5413 16.1992C24.6457 16.1992 23.0288 14.6719 23.0288 12.5446C23.0288 10.3628 24.6457 8.89009 26.5413 8.89009C28.437 8.89009 30.0538 10.3628 30.0538 12.5446C30.0538 14.6719 28.437 16.1992 26.5413 16.1992Z" fill="white"/>
<path d="M57.0354 7.79918H56.9239C56.3106 7.09009 55.1397 6.43555 53.6344 6.43555C50.5121 6.43555 47.8359 9.05373 47.8359 12.4901C47.8359 15.8719 50.5121 18.5446 53.6344 18.5446C55.1397 18.5446 56.3106 17.8901 56.9239 17.181H57.0354V18.0537C57.0354 20.3446 55.753 21.5992 53.7459 21.5992C52.0732 21.5992 51.0697 20.4537 50.6236 19.4174L48.282 20.3992C48.951 21.981 50.7909 23.9992 53.8016 23.9992C56.9796 23.9992 59.7116 22.1446 59.7116 17.6719V6.76282H57.1469V7.79918H57.0354ZM53.9131 16.1992C52.0175 16.1992 50.6236 14.6174 50.6236 12.5446C50.6236 10.4174 52.0732 8.89009 53.9131 8.89009C55.753 8.89009 57.2026 10.4719 57.2026 12.5992C57.2584 14.6719 55.8088 16.1992 53.9131 16.1992Z" fill="white"/>
<path d="M40.4202 6.4375C37.0192 6.4375 34.1758 9.00114 34.1758 12.492C34.1758 15.983 36.9635 18.5466 40.4202 18.5466C43.877 18.5466 46.6647 16.0375 46.6647 12.5466C46.6647 9.00114 43.877 6.4375 40.4202 6.4375ZM40.4202 16.2011C38.5246 16.2011 36.9077 14.6739 36.9077 12.5466C36.9077 10.3648 38.5246 8.89204 40.4202 8.89204C42.3159 8.89204 43.9328 10.3648 43.9328 12.5466C43.9328 14.6739 42.3159 16.2011 40.4202 16.2011Z" fill="white"/>
<path d="M61.7734 0.273438H64.4496V18.6007H61.7734V0.273438Z" fill="white"/>
<path d="M72.7072 16.1992C71.3133 16.1992 70.3655 15.5992 69.6964 14.3446L78.0038 11.0174L77.725 10.3083C77.2232 8.94464 75.6064 6.43555 72.4284 6.43555C69.2504 6.43555 66.5742 8.89009 66.5742 12.4901C66.5742 15.8719 69.1947 18.5446 72.7072 18.5446C75.5506 18.5446 77.1675 16.8537 77.8923 15.8719L75.7736 14.5083C75.0488 15.5446 74.101 16.1992 72.7072 16.1992ZM72.5399 8.72646C73.655 8.72646 74.6028 9.27191 74.8816 10.0355L69.3062 12.3265C69.2504 9.81736 71.1461 8.72646 72.5399 8.72646Z" fill="white"/>
</svg>
