<svg width="140" height="153" viewBox="0 0 140 153" fill="none" xmlns="http://www.w3.org/2000/svg">
<path d="M46.2857 73.1862L46.2857 139.056C46.2857 146.739 52.5103 152.962 60.1967 152.962L126.089 152.962C133.775 152.962 140 146.739 140 139.056L140 73.1862C140 65.5025 133.775 59.28 126.089 59.28L60.1967 59.28C52.5103 59.28 46.2857 53.0576 46.2857 45.3739L46.2857 21.0078C46.2857 15.6095 41.9629 11.2334 36.6305 11.2334L9.65517 11.2334C4.32277 11.2334 -5.2185e-08 15.6095 -1.16558e-07 21.0078L-4.56392e-07 49.5056C-5.20765e-07 54.9039 4.32277 59.28 9.65517 59.28L32.3748 59.28C40.0611 59.28 46.2857 65.5025 46.2857 73.1862Z" fill="white"/>
<path d="M6.91295 -0.000131815C6.91295 6.68183 12.3298 12.0986 19.0117 12.0986L6.91295 12.0986L6.91295 -0.000131815Z" fill="white"/>
<path d="M6.91295 69.9982C6.91295 63.3162 12.3298 57.8994 19.0117 57.8994L6.91295 57.8994L6.91295 69.9982Z" fill="white"/>
</svg>
