<svg width="63" height="70" viewBox="0 0 63 70" fill="none" xmlns="http://www.w3.org/2000/svg">
<path d="M42.1714 33.4901L42.1714 63.1314C42.1714 66.589 39.3703 69.3891 35.9115 69.3891L6.25992 69.3891C2.80107 69.3891 7.27152e-07 66.589 6.8592e-07 63.1314L3.32451e-07 33.4901C2.91219e-07 30.0324 2.80107 27.2323 6.25992 27.2323L35.9115 27.2323C39.3703 27.2323 42.1714 24.4322 42.1714 20.9746L42.1714 10.0098C42.1714 7.58059 44.1167 5.61133 46.5163 5.61133L58.6552 5.61133C61.0548 5.61133 63 7.58059 63 10.0098L63 22.8338C63 25.263 61.0548 27.2323 58.6552 27.2323L48.4314 27.2323C44.9725 27.2323 42.1714 30.0324 42.1714 33.4901Z" fill="white"/>
<path d="M59.8898 0.557509C59.8898 3.56439 57.4522 6.00195 54.4453 6.00195L59.8898 6.00195L59.8898 0.557509Z" fill="white"/>
<path d="M59.8898 32.0558C59.8898 29.0489 57.4522 26.6113 54.4453 26.6113L59.8898 26.6113L59.8898 32.0558Z" fill="white"/>
</svg>
