<svg width="36" height="36" viewBox="0 0 36 36" fill="none" xmlns="http://www.w3.org/2000/svg">
<path fill-rule="evenodd" clip-rule="evenodd" d="M10.9667 1.71222C9.18681 1.51099 7.38869 1.87506 5.82723 2.75284C5.41809 2.98284 5.14019 3.39109 5.07626 3.85608C5.01233 4.32106 5.16974 4.78917 5.50161 5.12106L9.23844 8.85789L8.63777 9.45826L4.89902 5.72166C4.56704 5.38987 4.09889 5.2326 3.63392 5.29666C3.16895 5.36074 2.76077 5.63877 2.53089 6.04798C1.65375 7.60941 1.29018 9.40726 1.49169 11.1868C1.6932 12.9664 2.44959 14.6374 3.65367 15.9631C4.85775 17.289 6.44849 18.2022 8.2005 18.5736C9.51869 18.853 10.8779 18.8149 12.168 18.471L14.4563 16.1827L13.873 15.5994C13.5917 15.3181 13.2102 15.16 12.8124 15.16H12.8096C12.601 15.16 12.3947 15.2035 12.2038 15.2878C11.1415 15.7567 9.95856 15.8796 8.82257 15.6388C7.68659 15.3979 6.65517 14.8058 5.87445 13.9462C5.09373 13.0866 4.60331 12.0031 4.47264 10.8493C4.42323 10.4129 4.42622 9.97489 4.4798 9.54409L7.57745 12.64C8.16318 13.2254 9.11249 13.2253 9.69819 12.6399L12.4204 9.91909C12.7019 9.63781 12.86 9.25624 12.86 8.85835C12.8601 8.46046 12.702 8.07885 12.4207 7.79749L9.3239 4.7007C9.75491 4.64697 10.1932 4.64386 10.6297 4.69323C11.7838 4.8237 12.8676 5.31408 13.7274 6.09489C14.5872 6.8757 15.1794 7.90731 15.4203 9.04351C15.6611 10.1797 15.5381 11.3629 15.0689 12.4253C14.8187 12.9919 14.9424 13.654 15.3804 14.092L15.9636 14.6752L18.2532 12.3857C18.5964 11.0966 18.6342 9.73864 18.3551 8.42158C17.9837 6.66922 17.0703 5.07819 15.7442 3.87397C14.4181 2.66976 12.7467 1.91344 10.9667 1.71222ZM24.2993 17.3947L21.4911 20.2027L21.7368 20.4484C22.1747 20.8863 22.8366 21.0102 23.4032 20.7601C24.4655 20.2914 25.6486 20.1687 26.7845 20.4096C27.9205 20.6506 28.9518 21.2428 29.7325 22.1026C30.5131 22.9624 31.0033 24.0459 31.1338 25.1998C31.1831 25.6359 31.1801 26.0737 31.1265 26.5042L28.0316 23.4084C27.7502 23.127 27.3686 22.9689 26.9706 22.9689C26.5727 22.9689 26.1911 23.127 25.9098 23.4085L23.189 26.1307C22.6034 26.7165 22.6035 27.6661 23.1891 28.2517L26.284 31.3465C25.8535 31.3999 25.4156 31.4029 24.9795 31.3534C23.8257 31.2228 22.7423 30.7324 21.8826 29.9517C21.023 29.1709 20.431 28.1395 20.1902 27.0036C19.9493 25.8676 20.0721 24.6846 20.541 23.6223C20.7911 23.0557 20.6673 22.3938 20.2295 21.9559L19.9838 21.7102L17.1755 24.5185C17.0126 25.5444 17.0373 26.5975 17.2553 27.6256C17.6267 29.3776 18.5399 30.9684 19.8657 32.1724C21.1915 33.3765 22.8624 34.1329 24.642 34.3344C26.4216 34.536 28.2194 34.1724 29.7809 33.2952C30.1902 33.0654 30.4682 32.6571 30.5322 32.1921C30.5963 31.7269 30.4388 31.2588 30.1068 30.9268L26.3709 27.1908L26.9708 26.5906L30.7063 30.3271C31.0382 30.6591 31.5063 30.8166 31.9713 30.7527C32.4365 30.6886 32.8448 30.4107 33.0747 30.0015C33.9521 28.4401 34.316 26.6424 34.1148 24.8628C33.9136 23.0832 33.1574 21.4119 31.9535 20.086C30.7496 18.76 29.159 17.8465 27.407 17.475C26.3786 17.2569 25.3253 17.2318 24.2993 17.3947Z" fill="#1D252C"/>
<path d="M15.1329 25.0247L11.1454 21.0371L2.69531 29.4872L6.68291 33.4748L15.1329 25.0247Z" stroke="#1D252C" stroke-width="2.5" stroke-linejoin="round"/>
<path d="M29.4239 6.74219L12.4453 23.7209" stroke="#1D252C" stroke-width="2.5" stroke-linejoin="round"/>
<path d="M30.8849 10.1608L26 5.27598L32.1063 1.61133L34.5495 4.05442L30.8849 10.1608Z" fill="#1D252C"/>
</svg>
