<svg width="52" height="56" viewBox="0 0 52 56" fill="none" xmlns="http://www.w3.org/2000/svg">
<path d="M16.9453 26.7921L16.9453 50.9071C16.9453 53.7201 19.2241 55.9981 22.0381 55.9981L46.1614 55.9981C48.9754 55.9981 51.2542 53.7201 51.2542 50.9071L51.2542 26.7921C51.2542 23.9791 48.9754 21.701 46.1614 21.701L22.0381 21.701C19.2241 21.701 16.9453 19.423 16.9453 16.61L16.9453 7.6895C16.9453 5.7132 15.3627 4.11108 13.4105 4.11108L3.53478 4.11108C1.58257 4.11108 -1.9105e-08 5.7132 -4.26722e-08 7.6895L-1.67086e-07 18.1226C-1.90653e-07 20.0989 1.58257 21.701 3.53478 21.701L11.8525 21.701C14.6664 21.701 16.9453 23.9791 16.9453 26.7921Z" fill="white"/>
<path d="M2.53156 6.40754e-05C2.53156 2.44634 4.51466 4.42944 6.96094 4.42944L2.53156 4.42944L2.53156 6.40754e-05Z" fill="white"/>
<path d="M2.53156 25.6264C2.53156 23.1801 4.51466 21.197 6.96094 21.197L2.53156 21.197L2.53156 25.6264Z" fill="white"/>
</svg>
