<svg width="120" height="138" viewBox="0 0 120 138" fill="none" xmlns="http://www.w3.org/2000/svg">
<path d="M80.3265 66.0273L80.3265 125.453C80.3265 132.385 74.9911 137.999 68.4029 137.999L11.9237 137.999C5.33537 137.999 -2.78727e-06 132.385 -2.86581e-06 125.453L-3.53909e-06 66.0273C-3.61762e-06 59.0952 5.33537 53.4814 11.9237 53.4814L68.4029 53.4814C74.9911 53.4814 80.3265 47.8677 80.3265 40.9356L80.3265 18.953C80.3265 14.0828 84.0318 10.1348 88.6024 10.1348L111.724 10.1348C116.295 10.1348 120 14.0828 120 18.953L120 44.6632C120 49.5334 116.295 53.4814 111.724 53.4814L92.2502 53.4814C85.6619 53.4814 80.3265 59.0952 80.3265 66.0273Z" fill="white"/>
<path d="M114.073 0.000761985C114.073 6.02909 109.431 10.916 103.703 10.916L114.073 10.916L114.073 0.000761985Z" fill="white"/>
<path d="M114.073 63.1535C114.073 57.1252 109.431 52.2383 103.703 52.2383L114.073 52.2383L114.073 63.1535Z" fill="white"/>
</svg>
