<svg width="80" height="80" viewBox="0 0 80 80" fill="none" xmlns="http://www.w3.org/2000/svg">
<path d="M53.75 35V72.1807C53.75 76.5178 49.9941 80 45.6019 80H7.9491C3.55691 80 4.98542e-07 76.4877 4.46462e-07 72.1506L0 34.9699C-5.20798e-08 30.6327 3.58001 26.25 7.9722 26.25H45.625C50.0172 26.25 53.75 23.6382 53.75 19.3011V5.54736C53.75 2.50028 56.2202 0.030122 59.2672 0.030122L74.4828 0C77.5299 -3.6085e-08 80 2.47016 80 5.51725V21.6032C80 24.6502 77.5529 26.25 74.5059 26.25H61.5232C57.1311 26.25 53.75 30.6629 53.75 35Z" fill="#1D252C"/>
</svg>
