<svg width="24" height="24" viewBox="0 0 24 24" fill="none" xmlns="http://www.w3.org/2000/svg">
<path fill-rule="evenodd" clip-rule="evenodd" d="M7.31377 1.14148C6.12715 1.00733 4.9284 1.25004 3.88743 1.83523C3.61467 1.98856 3.4294 2.26073 3.38678 2.57072C3.34416 2.88071 3.4491 3.19278 3.67035 3.41404L6.16157 5.90526L5.76112 6.30551L3.26862 3.81444C3.0473 3.59325 2.7352 3.4884 2.42522 3.53111C2.11524 3.57383 1.84312 3.75918 1.68987 4.03199C1.10511 5.07294 0.862722 6.27151 0.997065 7.45788C1.13141 8.64425 1.63567 9.75828 2.43839 10.6421C3.24111 11.526 4.3016 12.1348 5.46961 12.3824C6.3484 12.5687 7.25453 12.5433 8.11461 12.314L9.64013 10.7885L9.25129 10.3996C9.06375 10.2121 8.80939 10.1067 8.54418 10.1067H8.54234C8.40326 10.1067 8.26572 10.1357 8.1385 10.1919C7.43028 10.5045 6.64165 10.5864 5.88432 10.4259C5.127 10.2653 4.43939 9.87054 3.91891 9.29747C3.39843 8.7244 3.07148 8.00208 2.98437 7.23284C2.95143 6.94195 2.95342 6.64993 2.98914 6.36273L5.05424 8.42665C5.44473 8.81691 6.0776 8.8169 6.46807 8.42662L8.28289 6.61273C8.47051 6.42521 8.57593 6.17083 8.57597 5.90557C8.576 5.64031 8.47064 5.3859 8.28307 5.19833L6.21854 3.1338C6.50588 3.09798 6.79805 3.09591 7.0891 3.12882C7.85849 3.2158 8.581 3.54272 9.15421 4.06326C9.72743 4.5838 10.1222 5.27154 10.2828 6.02901C10.4433 6.78648 10.3613 7.57527 10.0485 8.28356C9.88175 8.66128 9.96424 9.10268 10.2562 9.39466L10.645 9.7835L12.1714 8.25715C12.4002 7.39775 12.4254 6.49243 12.2393 5.61439C11.9917 4.44615 11.3828 3.38546 10.4987 2.58265C9.61469 1.77984 8.50039 1.27563 7.31377 1.14148ZM16.2021 11.5965L14.33 13.4685L14.4938 13.6323C14.7857 13.9242 15.227 14.0068 15.6047 13.8401C16.3129 13.5276 17.1016 13.4458 17.8589 13.6064C18.6162 13.7671 19.3038 14.1619 19.8242 14.7351C20.3446 15.3083 20.6714 16.0306 20.7584 16.7999C20.7913 17.0906 20.7893 17.3825 20.7536 17.6695L18.6903 15.6056C18.5027 15.418 18.2483 15.3126 17.983 15.3126C17.7177 15.3126 17.4633 15.418 17.2758 15.6057L15.4619 17.4205C15.0715 17.811 15.0716 18.4441 15.462 18.8345L17.5252 20.8977C17.2382 20.9333 16.9463 20.9353 16.6556 20.9023C15.8864 20.8152 15.1641 20.4883 14.591 19.9678C14.0179 19.4473 13.6232 18.7597 13.4627 18.0024C13.3021 17.2451 13.384 16.4564 13.6966 15.7482C13.8633 15.3705 13.7808 14.9292 13.4889 14.6373L13.3251 14.4735L11.4529 16.3457C11.3443 17.0296 11.3608 17.7317 11.5061 18.4171C11.7537 19.5851 12.3625 20.6456 13.2464 21.4483C14.1302 22.251 15.2442 22.7553 16.4306 22.8896C17.617 23.024 18.8155 22.7816 19.8565 22.1968C20.1294 22.0436 20.3147 21.7714 20.3574 21.4614C20.4001 21.1513 20.2951 20.8392 20.0738 20.6179L17.5832 18.1272L17.9831 17.7271L20.4734 20.2181C20.6947 20.4394 21.0068 20.5444 21.3168 20.5018C21.6269 20.4591 21.8991 20.2738 22.0524 20.001C22.6373 18.9601 22.8799 17.7616 22.7458 16.5752C22.6116 15.3888 22.1075 14.2746 21.3049 13.3907C20.5023 12.5067 19.4419 11.8977 18.2739 11.65C17.5883 11.5046 16.8861 11.4879 16.2021 11.5965Z" fill="white"/>
<path d="M10.0886 16.6818L7.43024 14.0234L1.79688 19.6568L4.45527 22.3152L10.0886 16.6818Z" stroke="white" stroke-width="2" stroke-linejoin="round"/>
<path d="M19.616 4.49414L8.29688 15.8133" stroke="white" stroke-width="2" stroke-linejoin="round"/>
<path d="M20.5925 6.77386L17.3359 3.51732L21.4068 1.07422L23.0356 2.70295L20.5925 6.77386Z" fill="white"/>
</svg>
