<svg width="113" height="32" viewBox="0 0 113 32" fill="none" xmlns="http://www.w3.org/2000/svg">
<g clip-path="url(#clip0_1614_2492)">
<path d="M103.401 25.5994H106.533V5.25307H103.401V25.5994ZM109.663 5.25195V8.29941H112.794V5.25195H109.663ZM109.663 25.5994H112.794V11.3469H109.663V25.5994ZM80.9272 8.30053H84.0586V5.25307H80.9272V8.30053ZM80.9272 25.6005H84.0586V11.3469H80.9272V25.5994V25.6005ZM63.0703 15.5978C63.0703 9.7822 59.6994 5.25307 53.6451 5.25307C47.5908 5.25307 44.2188 9.7822 44.2188 15.5978C44.2188 20.8717 46.992 25.0879 52.0239 25.8271V26.112C52.0239 28.7366 54.1274 30.8632 56.721 30.8632H61.417V27.6957H55.1553V25.8416C60.256 25.1474 63.0703 20.9099 63.0703 15.5978ZM53.8192 22.8951H53.4699C49.1742 22.8951 47.5908 19.5404 47.5908 15.5978C47.5908 11.6553 49.1742 8.30166 53.4699 8.30053H53.8192C58.1149 8.30053 59.6983 11.6553 59.6983 15.5978C59.6983 19.5404 58.1149 22.8951 53.8192 22.8951ZM74.6644 19.3441C74.6644 21.3832 73.8018 23.1183 71.5331 23.1183C69.2643 23.1183 68.4017 21.3832 68.4017 19.3441V11.3469H65.2703V19.7647C65.2703 23.8115 67.1254 25.9404 70.636 25.9404C72.6619 25.9404 73.8417 25.0408 74.4915 24.0123H75.0115V25.6106H77.7947V11.3581H74.6633V19.3429L74.6644 19.3441ZM94.9231 11.007C93.1634 11.007 91.7507 11.6542 90.7239 12.7399H90.2017V11.348H87.1889V32.0005H90.3203V24.231H90.7239C91.7518 25.3178 93.1645 25.9639 94.9231 25.9639C98.8851 25.9639 101.092 22.6899 101.092 18.4849C101.092 14.2799 98.8851 11.0059 94.9231 11.0059V11.007ZM94.0981 23.2799C91.295 23.2799 90.2283 21.0759 90.2283 18.4849C90.2283 15.8939 91.2939 13.6899 94.0981 13.6899C96.9024 13.6899 97.968 15.8939 97.968 18.4849C97.968 21.0759 96.9024 23.2799 94.0981 23.2799Z" fill="#FCDA01"/>
<path d="M37.0234 25.6H32.5747C32.0557 25.6 31.6355 25.1749 31.6355 24.65V7.35002C31.6355 6.8251 31.2152 6.4 30.6963 6.4H26.2476C25.7286 6.4 25.3084 5.9749 25.3084 5.44998V0.950018C25.3084 0.425096 24.8881 0 24.3692 0H7.26629C6.74735 0 6.3271 0.425096 6.3271 0.950018V5.44998C6.3271 5.9749 5.90684 6.4 5.3879 6.4H0.939196C0.420254 6.4 0 6.8251 0 7.35002V24.65C0 25.1749 0.420254 25.6 0.939196 25.6H5.3879C5.90684 25.6 6.3271 26.0251 6.3271 26.55V31.05C6.3271 31.5749 6.74735 32 7.26629 32H24.3692C24.8881 32 25.3084 31.5749 25.3084 31.05V26.55C25.3084 26.0251 25.7286 25.6 26.2476 25.6H30.6963C31.2152 25.6 31.6355 26.0251 31.6355 26.55V31.05C31.6355 31.5749 32.0557 32 32.5747 32H37.0234C37.5423 32 37.9626 31.5749 37.9626 31.05V26.55C37.9626 26.0251 37.5423 25.6 37.0234 25.6ZM24.3692 25.6H7.26629C6.74735 25.6 6.3271 25.1749 6.3271 24.65V7.35002C6.3271 6.8251 6.74735 6.4 7.26629 6.4H24.3692C24.8881 6.4 25.3084 6.8251 25.3084 7.35002V24.65C25.3084 25.1749 24.8881 25.6 24.3692 25.6Z" fill="#FCDA01"/>
</g>
<defs>
<clipPath id="clip0_1614_2492">
<rect width="112.8" height="32" fill="white"/>
</clipPath>
</defs>
</svg>
