<svg width="86" height="24" viewBox="0 0 86 24" fill="none" xmlns="http://www.w3.org/2000/svg">
<g clip-path="url(#clip0_1614_2391)">
<path d="M78.3865 19.2H80.7601V3.94029H78.3865V19.2ZM83.1328 3.93945V6.22505H85.5063V3.93945H83.1328ZM83.1328 19.2H85.5063V8.51064H83.1328V19.2ZM61.3516 6.22589H63.7251V3.94029H61.3516V6.22589ZM61.3516 19.2009H63.7251V8.51064H61.3516V19.2V19.2009ZM47.8164 11.6989C47.8164 7.33714 45.2614 3.94029 40.6723 3.94029C36.0833 3.94029 33.5273 7.33714 33.5273 11.6989C33.5273 15.6543 35.6294 18.8164 39.4435 19.3708V19.5845C39.4435 21.5529 41.0379 23.1479 43.0038 23.1479H46.5633V20.7723H41.817V19.3817C45.6833 18.861 47.8164 15.6829 47.8164 11.6989ZM40.8043 17.1718H40.5395C37.2835 17.1718 36.0833 14.6558 36.0833 11.6989C36.0833 8.74198 37.2835 6.22673 40.5395 6.22589H40.8043C44.0603 6.22589 45.2605 8.74198 45.2605 11.6989C45.2605 14.6558 44.0603 17.1718 40.8043 17.1718ZM56.6045 14.5085C56.6045 16.0379 55.9506 17.3392 54.231 17.3392C52.5114 17.3392 51.8575 16.0379 51.8575 14.5085V8.51064H49.4839V14.824C49.4839 17.8591 50.8901 19.4557 53.5511 19.4557C55.0866 19.4557 55.9809 18.7811 56.4734 18.0097H56.8676V19.2084H58.9772V8.51905H56.6037V14.5077L56.6045 14.5085ZM71.9602 8.25575C70.6263 8.25575 69.5556 8.74113 68.7773 9.55544H68.3814V8.51148H66.0978V24.0009H68.4713V18.1737H68.7773C69.5564 18.9889 70.6272 19.4734 71.9602 19.4734C74.9632 19.4734 76.6358 17.0179 76.6358 13.8642C76.6358 10.7104 74.9632 8.25491 71.9602 8.25491V8.25575ZM71.3349 17.4604C69.2101 17.4604 68.4016 15.8074 68.4016 13.8642C68.4016 11.9209 69.2093 10.2679 71.3349 10.2679C73.4605 10.2679 74.2682 11.9209 74.2682 13.8642C74.2682 15.8074 73.4605 17.4604 71.3349 17.4604Z" fill="#1D252C"/>
<path d="M28.0629 19.2H24.6909C24.2976 19.2 23.979 18.8812 23.979 18.4875V5.51251C23.979 5.11882 23.6605 4.8 23.2671 4.8H19.8951C19.5018 4.8 19.1832 4.48118 19.1832 4.08749V0.712513C19.1832 0.318822 18.8647 0 18.4713 0H5.5077C5.11435 0 4.79581 0.318822 4.79581 0.712513V4.08749C4.79581 4.48118 4.47726 4.8 4.08391 4.8H0.711891C0.318544 4.8 0 5.11882 0 5.51251V18.4875C0 18.8812 0.318544 19.2 0.711891 19.2H4.08391C4.47726 19.2 4.79581 19.5188 4.79581 19.9125V23.2875C4.79581 23.6812 5.11435 24 5.5077 24H18.4713C18.8647 24 19.1832 23.6812 19.1832 23.2875V19.9125C19.1832 19.5188 19.5018 19.2 19.8951 19.2H23.2671C23.6605 19.2 23.979 19.5188 23.979 19.9125V23.2875C23.979 23.6812 24.2976 24 24.6909 24H28.0629C28.4563 24 28.7748 23.6812 28.7748 23.2875V19.9125C28.7748 19.5188 28.4563 19.2 28.0629 19.2ZM18.4713 19.2H5.5077C5.11435 19.2 4.79581 18.8812 4.79581 18.4875V5.51251C4.79581 5.11882 5.11435 4.8 5.5077 4.8H18.4713C18.8647 4.8 19.1832 5.11882 19.1832 5.51251V18.4875C19.1832 18.8812 18.8647 19.2 18.4713 19.2Z" fill="#1D252C"/>
</g>
<defs>
<clipPath id="clip0_1614_2391">
<rect width="85.5" height="24" fill="white"/>
</clipPath>
</defs>
</svg>
