<svg width="32" height="32" viewBox="0 0 32 32" fill="none" xmlns="http://www.w3.org/2000/svg">
<path d="M25.3385 13.3346V12.0013C25.3385 9.52594 24.3552 7.15198 22.6048 5.40164C20.8545 3.6513 18.4805 2.66797 16.0052 2.66797C13.5299 2.66797 11.1559 3.6513 9.40554 5.40164C7.65521 7.15198 6.67188 9.52594 6.67188 12.0013V13.3346" stroke="#FCDA01" stroke-width="2" stroke-linejoin="round"/>
<path d="M6.66146 23.9987C5.24697 23.9987 3.89042 23.4368 2.89022 22.4366C1.89003 21.4364 1.32812 20.0799 1.32812 18.6654C1.32812 17.2508 1.89003 15.8943 2.89022 14.8942C3.89042 13.8939 5.24697 13.332 6.66146 13.332V23.9987Z" stroke="#FCDA01" stroke-width="2" stroke-linejoin="round"/>
<path d="M30.6615 18.6654C30.6615 20.0799 30.0996 21.4364 29.0993 22.4366C28.0992 23.4368 26.7427 23.9987 25.3281 23.9987V13.332C26.7427 13.332 28.0992 13.8939 29.0993 14.8942C30.0996 15.8943 30.6615 17.2508 30.6615 18.6654Z" stroke="#FCDA01" stroke-width="2" stroke-linejoin="round"/>
<path d="M18.6719 29.3333H20.0052C21.4197 29.3333 22.7763 28.7715 23.7764 27.7712C24.7767 26.7711 25.3385 25.4145 25.3385 24" stroke="#FCDA01" stroke-width="2" stroke-linejoin="round"/>
</svg>
