<svg width="32" height="32" viewBox="0 0 32 32" fill="none" xmlns="http://www.w3.org/2000/svg">
<g clip-path="url(#clip0_1614_2878)">
<path d="M30.6641 30.5784H18.6641L18.6641 21.334H30.6641V30.5784Z" stroke="#FCDA01" stroke-width="2" stroke-linecap="round"/>
<path d="M24.6693 16C23.7853 16 22.9374 16.3746 22.3123 17.0414C21.6872 17.7082 21.3359 18.6126 21.3359 19.5556V21.3333H28.0026V19.5556C28.0026 18.6126 27.6514 17.7082 27.0263 17.0414C26.4012 16.3746 25.5533 16 24.6693 16Z" stroke="#FCDA01" stroke-width="2" stroke-linecap="round"/>
<path d="M27.5725 10.6371L28.3372 9.99273L28.3371 9.99266L27.5725 10.6371ZM25.2282 8.9342L25.5981 8.00513L25.5981 8.00512L25.2282 8.9342ZM19.7616 9.6616L18.7768 9.83506L20.3556 10.4661L19.7616 9.6616ZM17.4493 4.7903L18.2014 4.13126L18.2014 4.13122L17.4493 4.7903ZM13.0485 2.00113L12.7825 2.96509L12.7825 2.96509L13.0485 2.00113ZM7.93195 2.16386L7.60585 1.21852L7.60584 1.21853L7.93195 2.16386ZM3.69492 5.22776L4.48456 5.84132L4.48456 5.84132L3.69492 5.22776ZM2.4584 15.6305L1.54348 16.0341L1.54348 16.0341L2.4584 15.6305ZM5.84451 19.7254L5.28432 20.5538L5.28438 20.5538L5.84451 19.7254ZM10.7612 21.245V20.245H10.7602L10.7612 21.245ZM14.0075 22.245H15.0075L15.0075 20.245H14.0075L14.0075 22.245ZM27.5866 12.5153L28.0022 13.4249L29.8213 12.5938L29.4057 11.6842L27.5866 12.5153ZM28.3371 9.99266C27.5928 9.10957 26.6542 8.4256 25.5981 8.00513L24.8583 9.86327C25.5994 10.1583 26.2695 10.6428 26.8078 11.2816L28.3371 9.99266ZM25.5981 8.00512C24.5415 7.58447 23.4024 7.4417 22.2794 7.59112L22.5432 9.57365C23.3239 9.46976 24.1176 9.56839 24.8584 9.86329L25.5981 8.00512ZM22.2794 7.59112C21.1566 7.74052 20.0892 8.17672 19.1676 8.85712L20.3556 10.4661C21.0114 9.98186 21.7622 9.67756 22.5432 9.57365L22.2794 7.59112ZM20.7464 9.48814C20.3942 7.48814 19.514 5.62926 18.2014 4.13126L16.6972 5.44934C17.762 6.66453 18.4861 8.18498 18.7768 9.83506L20.7464 9.48814ZM18.2014 4.13122C16.8881 2.63261 15.1945 1.55596 13.3146 1.03716L12.7825 2.96509C14.2734 3.37652 15.6328 4.23477 16.6972 5.44938L18.2014 4.13122ZM13.3146 1.03716C11.434 0.518178 9.45281 0.581401 7.60585 1.21852L8.25805 3.10919C9.72399 2.60351 11.2923 2.55384 12.7825 2.96509L13.3146 1.03716ZM7.60584 1.21853C5.75962 1.85541 4.13106 3.03662 2.90527 4.6142L4.48456 5.84132C5.48063 4.5594 6.79139 3.61514 8.25805 3.10919L7.60584 1.21853ZM2.90528 4.61419C1.67989 6.19122 0.905622 8.10118 0.665735 10.1193L2.65175 10.3554C2.84982 8.68909 3.48807 7.12378 4.48456 5.84132L2.90528 4.61419ZM0.665735 10.1193C0.425859 12.1374 0.729196 14.1884 1.54348 16.0341L3.37332 15.2268C2.70508 13.7122 2.45368 12.0218 2.65175 10.3554L0.665735 10.1193ZM1.54348 16.0341C2.35791 17.8802 3.65255 19.4503 5.28432 20.5538L6.4047 18.8971C5.09579 18.0119 4.04141 16.7412 3.37331 15.2268L1.54348 16.0341ZM5.28438 20.5538C6.91696 21.6577 8.81711 22.2469 10.7621 22.245L10.7602 20.245C9.22339 20.2465 7.71279 19.7815 6.40465 18.897L5.28438 20.5538ZM10.7612 22.245L14.0075 22.245L14.0075 20.245L10.7612 20.245L10.7612 22.245ZM29.4057 11.6842C29.127 11.0742 28.7683 10.5043 28.3372 9.99273L26.8078 11.2815C27.1197 11.6516 27.3818 12.067 27.5866 12.5153L29.4057 11.6842Z" fill="#FCDA01"/>
</g>
<defs>
<clipPath id="clip0_1614_2878">
<rect width="32" height="32" fill="white"/>
</clipPath>
</defs>
</svg>
