<svg width="133" height="186" viewBox="0 0 133 186" fill="none" xmlns="http://www.w3.org/2000/svg">
<path d="M63.8082 85.827L63.8082 176.455C63.8082 187.027 72.3893 195.588 82.9854 195.588L173.823 195.588C184.419 195.588 193 187.027 193 176.455L193 85.827C193 75.2552 184.419 66.6939 173.823 66.6939L82.9854 66.6939C72.3893 66.6939 63.8082 58.1326 63.8082 47.5608L63.8082 14.0362C63.8082 6.60889 57.8489 0.587891 50.4978 0.587891L13.3103 0.587891C5.95924 0.587891 -7.17998e-08 6.6089 -1.60369e-07 14.0362L-6.27937e-07 53.2456C-7.16506e-07 60.6729 5.95925 66.6939 13.3103 66.6939L44.6309 66.6939C55.2271 66.6939 63.8082 75.2552 63.8082 85.827Z" fill="white"/>
<path d="M66 165C66 176.598 56.598 186 45 186L66 186L66 165Z" fill="white"/>
</svg>
