<svg width="86" height="87" viewBox="0 0 86 87" fill="none" xmlns="http://www.w3.org/2000/svg">
<path d="M28.4683 48.9703L28.4683 8.53626C28.4683 3.81963 32.2967 -3.85135e-07 37.0243 -4.4151e-07L77.5517 -9.24795e-07C82.2792 -9.8117e-07 86.1077 3.81962 86.1077 8.53626L86.1077 48.9703C86.1077 53.6869 82.2792 57.5066 77.5517 57.5066L37.0243 57.5066C32.2967 57.5066 28.4683 61.3262 28.4683 66.0428L28.4683 81C28.4683 84.3137 25.8095 87 22.5298 87L5.93846 87C2.65874 87 -3.20338e-08 84.3137 -7.15493e-08 81L-2.80156e-07 63.5066C-3.19672e-07 60.1929 2.65874 57.5066 5.93846 57.5066L19.9123 57.5066C24.6398 57.5066 28.4683 53.6869 28.4683 48.9703Z" fill="white"/>
<path d="M28.5567 25.877C28.5567 20.7026 24.362 16.5078 19.1875 16.5078L28.5567 16.5078L28.5567 25.877Z" fill="white"/>
</svg>
