<svg width="104" height="20" viewBox="0 0 104 20" fill="none" xmlns="http://www.w3.org/2000/svg">
<path d="M8.92579 3.0904C9.27982 2.07191 10.7202 2.07191 11.0742 3.0904L12.0913 6.01642C12.2475 6.46572 12.6668 6.77036 13.1424 6.78006L16.2395 6.84317C17.3175 6.86514 17.7626 8.23503 16.9034 8.88647L14.4349 10.758C14.0558 11.0453 13.8957 11.5383 14.0334 11.9935L14.9304 14.9586C15.2427 15.9906 14.0774 16.8373 13.1923 16.2214L10.6496 14.452C10.2592 14.1803 9.74087 14.1803 9.35043 14.452L6.80772 16.2214C5.92265 16.8373 4.75734 15.9906 5.06959 14.9586L5.96662 11.9935C6.10436 11.5383 5.9442 11.0453 5.56515 10.758L3.09664 8.88647C2.23739 8.23503 2.6825 6.86514 3.76055 6.84317L6.85765 6.78006C7.33323 6.77036 7.75253 6.46572 7.90871 6.01642L8.92579 3.0904Z" fill="white"/>
<path d="M29.9258 3.0904C30.2798 2.07191 31.7202 2.07191 32.0742 3.0904L33.0913 6.01642C33.2475 6.46572 33.6668 6.77036 34.1424 6.78006L37.2395 6.84317C38.3175 6.86514 38.7626 8.23503 37.9034 8.88647L35.4349 10.758C35.0558 11.0453 34.8957 11.5383 35.0334 11.9935L35.9304 14.9586C36.2427 15.9906 35.0774 16.8373 34.1923 16.2214L31.6496 14.452C31.2592 14.1803 30.7409 14.1803 30.3504 14.452L27.8077 16.2214C26.9226 16.8373 25.7573 15.9906 26.0696 14.9586L26.9666 11.9935C27.1044 11.5383 26.9442 11.0453 26.5652 10.758L24.0966 8.88647C23.2374 8.23503 23.6825 6.86514 24.7605 6.84317L27.8577 6.78006C28.3332 6.77036 28.7525 6.46572 28.9087 6.01642L29.9258 3.0904Z" fill="white"/>
<path d="M71.9258 3.0904C72.2798 2.07191 73.7202 2.07191 74.0742 3.0904L75.0913 6.01642C75.2475 6.46572 75.6668 6.77036 76.1424 6.78006L79.2395 6.84317C80.3175 6.86514 80.7626 8.23503 79.9034 8.88647L77.4349 10.758C77.0558 11.0453 76.8957 11.5383 77.0334 11.9935L77.9304 14.9586C78.2427 15.9906 77.0774 16.8373 76.1923 16.2214L73.6496 14.452C73.2592 14.1803 72.7409 14.1803 72.3504 14.452L69.8077 16.2214C68.9226 16.8373 67.7573 15.9906 68.0696 14.9586L68.9666 11.9935C69.1044 11.5383 68.9442 11.0453 68.5652 10.758L66.0966 8.88647C65.2374 8.23503 65.6825 6.86514 66.7605 6.84317L69.8577 6.78006C70.3332 6.77036 70.7525 6.46572 70.9087 6.01642L71.9258 3.0904Z" fill="white"/>
<path d="M50.9258 3.0904C51.2798 2.07191 52.7202 2.07191 53.0742 3.0904L54.0913 6.01642C54.2475 6.46572 54.6668 6.77036 55.1424 6.78006L58.2395 6.84317C59.3175 6.86514 59.7626 8.23503 58.9034 8.88647L56.4349 10.758C56.0558 11.0453 55.8957 11.5383 56.0334 11.9935L56.9304 14.9586C57.2427 15.9906 56.0774 16.8373 55.1923 16.2214L52.6496 14.452C52.2592 14.1803 51.7409 14.1803 51.3504 14.452L48.8077 16.2214C47.9226 16.8373 46.7573 15.9906 47.0696 14.9586L47.9666 11.9935C48.1044 11.5383 47.9442 11.0453 47.5652 10.758L45.0966 8.88647C44.2374 8.23503 44.6825 6.86514 45.7605 6.84317L48.8577 6.78006C49.3332 6.77036 49.7525 6.46572 49.9087 6.01642L50.9258 3.0904Z" fill="white"/>
<path d="M92.9258 3.0904C93.2798 2.07191 94.7202 2.07191 95.0742 3.0904L96.0913 6.01642C96.2475 6.46572 96.6668 6.77036 97.1424 6.78006L100.239 6.84317C101.318 6.86514 101.763 8.23503 100.903 8.88647L98.4349 10.758C98.0558 11.0453 97.8957 11.5383 98.0334 11.9935L98.9304 14.9586C99.2427 15.9906 98.0774 16.8373 97.1923 16.2214L94.6496 14.452C94.2592 14.1803 93.7409 14.1803 93.3504 14.452L90.8077 16.2214C89.9226 16.8373 88.7573 15.9906 89.0696 14.9586L89.9666 11.9935C90.1044 11.5383 89.9442 11.0453 89.5652 10.758L87.0966 8.88647C86.2374 8.23503 86.6825 6.86514 87.7605 6.84317L90.8577 6.78006C91.3332 6.77036 91.7525 6.46572 91.9087 6.01642L92.9258 3.0904Z" fill="white"/>
</svg>
