<svg width="20" height="20" viewBox="0 0 20 20" fill="none" xmlns="http://www.w3.org/2000/svg">
<g clip-path="url(#clip0_1370_1183)">
<path d="M5 10L10.0075 4.9925L13.3408 8.32583L19.1667 2.5" stroke="white" stroke-width="1.66667" stroke-linejoin="round"/>
<path d="M14.167 1.66666H20.0003V7.49999L14.167 1.66666Z" fill="white"/>
<path d="M15.6453 10.0007C15.2977 11.5255 14.482 12.9035 13.3126 13.9418C12.1431 14.9801 10.6782 15.6269 9.12307 15.7916C7.56784 15.9564 6.00004 15.6308 4.63898 14.8606C3.27793 14.0902 2.19172 12.9138 1.5323 11.4957C0.872893 10.0776 0.673273 8.48881 0.961376 6.9517C1.24948 5.41456 2.01089 4.00593 3.13908 2.92289C4.26728 1.83985 5.70582 1.13657 7.25343 0.911457C8.80107 0.686343 10.3803 0.950648 11.7703 1.6674" stroke="white" stroke-width="1.66667" stroke-miterlimit="10"/>
<path d="M13.6396 13.6361L19.1696 19.1661" stroke="white" stroke-width="1.66667" stroke-miterlimit="10"/>
</g>
<defs>
<clipPath id="clip0_1370_1183">
<rect width="20" height="20" fill="white"/>
</clipPath>
</defs>
</svg>
