<svg width="20" height="20" viewBox="0 0 20 20" fill="none" xmlns="http://www.w3.org/2000/svg">
<g clip-path="url(#clip0_1370_1131)">
<path d="M5.00033 13.3333H17.5003L19.167 5H4.16699L5.00033 13.3333Z" stroke="white" stroke-width="1.66667" stroke-linejoin="round"/>
<path d="M4.16667 5.00001L3.75 0.833344H0" stroke="white" stroke-width="1.66667" stroke-linejoin="round"/>
<path d="M7.49967 19.1667C8.42017 19.1667 9.16634 18.4205 9.16634 17.5C9.16634 16.5795 8.42017 15.8333 7.49967 15.8333C6.5792 15.8333 5.83301 16.5795 5.83301 17.5C5.83301 18.4205 6.5792 19.1667 7.49967 19.1667Z" stroke="white" stroke-width="1.66667" stroke-linejoin="round"/>
<path d="M15.8337 19.1667C16.7542 19.1667 17.5003 18.4205 17.5003 17.5C17.5003 16.5795 16.7542 15.8333 15.8337 15.8333C14.9132 15.8333 14.167 16.5795 14.167 17.5C14.167 18.4205 14.9132 19.1667 15.8337 19.1667Z" stroke="white" stroke-width="1.66667" stroke-linejoin="round"/>
<path d="M8.75 5L9.58333 13.3333" stroke="white" stroke-width="1.66667" stroke-linejoin="round"/>
<path d="M14.5833 5L13.75 13.3333" stroke="white" stroke-width="1.66667" stroke-linejoin="round"/>
<path d="M4.58301 9.16666H17.9163" stroke="white" stroke-width="1.66667" stroke-linejoin="round"/>
</g>
<defs>
<clipPath id="clip0_1370_1131">
<rect width="20" height="20" fill="white"/>
</clipPath>
</defs>
</svg>
