<svg width="20" height="20" viewBox="0 0 20 20" fill="none" xmlns="http://www.w3.org/2000/svg">
<g clip-path="url(#clip0_1370_1120)">
<path fill-rule="evenodd" clip-rule="evenodd" d="M6.0948 0.951243C5.10595 0.839452 4.107 1.04171 3.23952 1.52937C3.01222 1.65714 2.85783 1.88395 2.82231 2.14228C2.7868 2.4006 2.87425 2.66066 3.05862 2.84504L5.13464 4.92106L4.80093 5.2546L2.72385 3.17871C2.53941 2.99438 2.27933 2.90701 2.02101 2.9426C1.7627 2.9782 1.53593 3.13266 1.40822 3.36C0.920921 4.22746 0.718935 5.22627 0.830888 6.21491C0.942838 7.20355 1.36305 8.13191 2.03199 8.8684C2.70092 9.60498 3.58466 10.1123 4.55801 10.3187C5.29033 10.4739 6.04544 10.4527 6.76217 10.2617L8.03344 8.9904L7.70941 8.66632C7.55312 8.51007 7.34116 8.42223 7.12015 8.42223H7.11861C7.00271 8.42223 6.8881 8.4464 6.78208 8.49323C6.1919 8.75373 5.5347 8.82198 4.9036 8.68823C4.2725 8.5544 3.69949 8.22546 3.26575 7.7479C2.83202 7.27034 2.55956 6.66841 2.48697 6.02738C2.45952 5.78497 2.46118 5.54162 2.49095 5.30228L4.21186 7.02222C4.53727 7.34743 5.06466 7.34743 5.39005 7.02219L6.9024 5.51062C7.05875 5.35435 7.14661 5.14237 7.14664 4.92132C7.14666 4.70027 7.05886 4.48826 6.90255 4.33195L5.18211 2.61151C5.42156 2.58166 5.66504 2.57993 5.90758 2.60736C6.54874 2.67984 7.15083 2.95228 7.62851 3.38606C8.10619 3.81984 8.4352 4.39296 8.56903 5.02418C8.70278 5.65541 8.63445 6.31273 8.37378 6.90298C8.23479 7.21774 8.30353 7.58558 8.54686 7.82889L8.87086 8.15293L10.1429 6.88097C10.3335 6.1648 10.3545 5.41037 10.1994 4.67867C9.99311 3.70513 9.4857 2.82123 8.74895 2.15222C8.01224 1.48321 7.08365 1.06303 6.0948 0.951243ZM13.5018 9.66373L11.9417 11.2237L12.0782 11.3602C12.3214 11.6035 12.6892 11.6723 13.0039 11.5334C13.5941 11.273 14.2514 11.2048 14.8824 11.3387C15.5135 11.4726 16.0865 11.8016 16.5202 12.2792C16.9539 12.7569 17.2262 13.3588 17.2987 13.9999C17.3261 14.2422 17.3244 14.4854 17.2947 14.7246L15.5753 13.0047C15.4189 12.8483 15.2069 12.7605 14.9859 12.7605C14.7648 12.7605 14.5528 12.8483 14.3965 13.0047L12.8849 14.5171C12.5596 14.8425 12.5597 15.3701 12.885 15.6954L14.6044 17.4147C14.3652 17.4444 14.1219 17.4461 13.8797 17.4186C13.2387 17.346 12.6368 17.0736 12.1592 16.6398C11.6816 16.2061 11.3527 15.6331 11.2189 15.002C11.0851 14.3709 11.1534 13.7137 11.4139 13.1235C11.5528 12.8087 11.484 12.441 11.2408 12.1977L11.1043 12.0612L9.54411 13.6214C9.45361 14.1913 9.46736 14.7764 9.58845 15.3476C9.79478 16.3209 10.3021 17.2047 11.0387 17.8736C11.7752 18.5425 12.7035 18.9627 13.6922 19.0746C14.6809 19.1867 15.6796 18.9846 16.5471 18.4973C16.7745 18.3696 16.9289 18.1428 16.9645 17.8845C17.0001 17.6261 16.9126 17.366 16.7282 17.1816L14.6527 15.106L14.9859 14.7726L17.0612 16.8484C17.2456 17.0328 17.5057 17.1203 17.764 17.0848C18.0224 17.0492 18.2493 16.8948 18.377 16.6675C18.8644 15.8001 19.0666 14.8013 18.9549 13.8127C18.843 12.824 18.4229 11.8955 17.7541 11.1589C17.0853 10.4222 16.2016 9.91473 15.2283 9.70832C14.6569 9.58715 14.0718 9.57323 13.5018 9.66373Z" fill="white"/>
<path d="M8.40684 13.9015L6.19154 11.6862L1.49707 16.3807L3.7124 18.596L8.40684 13.9015Z" stroke="white" stroke-width="1.66667" stroke-linejoin="round"/>
<path d="M16.3466 3.74512L6.91406 13.1777" stroke="white" stroke-width="1.66667" stroke-linejoin="round"/>
<path d="M17.1601 5.64487L14.4463 2.93109L17.8387 0.895172L19.196 2.25245L17.1601 5.64487Z" fill="white"/>
</g>
<defs>
<clipPath id="clip0_1370_1120">
<rect width="20" height="20" fill="white"/>
</clipPath>
</defs>
</svg>
