<svg width="181" height="48" viewBox="0 0 181 48" fill="none" xmlns="http://www.w3.org/2000/svg">
<g opacity="0.32" clip-path="url(#clip0_1677_537)">
<path fill-rule="evenodd" clip-rule="evenodd" d="M42.0108 38.4852C42.0113 38.4233 41.9997 38.3618 41.9766 38.3043C41.9536 38.2468 41.9194 38.1945 41.8762 38.1503C41.833 38.1061 41.7816 38.0708 41.7249 38.0466C41.6681 38.0224 41.6072 38.0096 41.5455 38.0091C41.4792 38.008 41.4134 38.0214 41.3527 38.0483C41.292 38.0752 41.2378 38.1151 41.1939 38.165C38.9157 40.608 36.1606 42.552 33.1011 43.8753C30.0416 45.1987 26.7434 45.873 23.4128 45.856C20.0823 45.839 16.7911 45.1311 13.745 43.7766C10.699 42.4221 7.96375 40.4501 5.71032 37.984C5.66781 37.932 5.61431 37.8902 5.55373 37.8615C5.49314 37.8329 5.42696 37.8181 5.36001 37.8184C5.23502 37.8191 5.11544 37.8696 5.02745 37.9589C4.93946 38.0482 4.89026 38.1688 4.89063 38.2945C4.89044 38.4069 4.93135 38.5154 5.00555 38.5994C7.1324 41.4984 9.90307 43.858 13.0969 45.4903C16.2907 47.1226 19.8195 47.9824 23.4021 48.0013C26.9847 48.0203 30.5222 47.1978 33.7329 45.5993C36.9436 44.0009 39.7388 41.6707 41.8959 38.7943C41.9689 38.7079 42.0095 38.5986 42.0108 38.4852Z" fill="black"/>
<path fill-rule="evenodd" clip-rule="evenodd" d="M26.0143 1.93249C25.9609 1.963 25.9139 2.00382 25.8761 2.0526C25.8383 2.10138 25.8105 2.15717 25.7941 2.21678C25.7778 2.27638 25.7733 2.33864 25.7809 2.39999C25.7886 2.46134 25.8081 2.52057 25.8385 2.57432C25.8719 2.63312 25.917 2.68429 25.9711 2.72456C26.0252 2.76483 26.0871 2.79333 26.1528 2.80822C29.3953 3.57033 32.4464 4.99701 35.1155 6.99902C37.7845 9.00103 40.014 11.5353 41.6645 14.4433C43.315 17.3513 44.351 20.5705 44.7077 23.8995C45.0644 27.2285 44.7341 30.5957 43.7374 33.7905C43.7044 33.8815 43.7002 33.9806 43.7253 34.0742C43.7504 34.1678 43.8037 34.2512 43.8777 34.3132C43.9518 34.3752 44.0432 34.4127 44.1392 34.4206C44.2353 34.4284 44.3314 34.4063 44.4145 34.3571C44.5112 34.298 44.5846 34.207 44.6222 34.0996C46.0552 30.7984 46.7019 27.2063 46.5106 23.6094C46.3193 20.0126 45.2954 16.5103 43.5204 13.3816C41.7454 10.2529 39.2684 7.58425 36.2866 5.58809C33.3048 3.59194 29.9006 2.32347 26.3453 1.88375C26.2328 1.85635 26.1142 1.87382 26.0143 1.93249Z" fill="black"/>
<path fill-rule="evenodd" clip-rule="evenodd" d="M2.53847 34.134C2.62072 34.1843 2.71644 34.2078 2.8125 34.2013C2.90857 34.1948 3.00027 34.1585 3.07504 34.0975C3.14981 34.0365 3.20398 33.9538 3.23013 33.8606C3.25627 33.7674 3.25311 33.6684 3.22108 33.5771C2.25656 30.3718 1.96028 27.001 2.35076 23.6753C2.74123 20.3496 3.81007 17.1408 5.49039 14.2495C7.17071 11.3583 9.42635 8.84686 12.1162 6.87236C14.806 4.89786 17.8722 3.50277 21.1228 2.77442C21.1886 2.76246 21.2511 2.73606 21.3056 2.69707C21.3602 2.65809 21.4056 2.6075 21.4385 2.54889C21.4836 2.47083 21.5054 2.38131 21.5012 2.29109C21.4971 2.20088 21.4671 2.1138 21.4149 2.0403C21.3627 1.9668 21.2905 1.91001 21.207 1.87674C21.1235 1.84347 21.0323 1.83515 20.9442 1.85276C17.3845 2.25537 13.9675 3.48817 10.9653 5.45298C7.96305 7.41779 5.45853 10.0603 3.65117 13.1701C1.84381 16.28 0.783531 19.7712 0.554778 23.3657C0.326026 26.9603 0.935115 30.5589 2.33354 33.875C2.36637 33.9845 2.43972 34.0772 2.53847 34.134Z" fill="black"/>
<path fill-rule="evenodd" clip-rule="evenodd" d="M3.07859 37.6295L15.8724 33.6811C15.8835 33.6796 15.8943 33.6763 15.9043 33.6713C15.9265 33.6655 15.9472 33.655 15.9652 33.6407C16.0327 33.6024 16.0863 33.5436 16.1185 33.4727C16.1507 33.4019 16.1598 33.3226 16.1444 33.2462C16.129 33.1699 16.09 33.1004 16.0329 33.0477C15.9759 32.995 15.9037 32.9618 15.8267 32.9529L13.9977 32.6341C13.9316 32.624 13.8714 32.5903 13.8282 32.5391C13.7849 32.4879 13.7615 32.4228 13.7623 32.3556C13.7622 32.3163 13.7702 32.2773 13.7856 32.2411C13.8011 32.205 13.8238 32.1724 13.8523 32.1454L21.4677 23.3253C21.6781 23.0399 21.9443 22.8006 22.25 22.6222C22.5846 22.4281 22.9585 22.3125 23.3438 22.284C23.7291 22.2556 24.1158 22.315 24.475 22.4579L21.5535 13.9414L2.23951 36.3194C2.1193 36.4453 2.04287 36.6069 2.02165 36.78C2.00043 36.9532 2.03558 37.1287 2.12182 37.2801C2.21673 37.4435 2.36632 37.5676 2.54386 37.6304C2.7214 37.6931 2.91534 37.6904 3.09104 37.6226L3.07859 37.6295Z" fill="black"/>
<path fill-rule="evenodd" clip-rule="evenodd" d="M44.7424 36.2692L34.9477 27.1025L34.9227 27.0803C34.9062 27.0653 34.8881 27.0523 34.8687 27.0413C34.8264 27.0169 34.7797 27.0012 34.7312 26.995C34.6828 26.9888 34.6337 26.9922 34.5866 27.0052C34.5396 27.0181 34.4955 27.0403 34.4569 27.0703C34.4184 27.1004 34.3861 27.1378 34.362 27.1805C34.3342 27.2318 34.3182 27.2887 34.3154 27.347C34.3125 27.4054 34.3227 27.4636 34.3453 27.5174L34.9837 29.2717C35.007 29.3333 35.0079 29.4013 34.9861 29.4635C34.9643 29.5257 34.9212 29.5781 34.8646 29.6114C34.8315 29.6317 34.7946 29.6448 34.7562 29.6498C34.7178 29.6548 34.6788 29.6517 34.6416 29.6406L23.2393 27.4214C22.6765 27.3604 22.1498 27.1127 21.7424 26.7174C21.335 26.3221 21.07 25.8017 20.9893 25.2383L15.1172 32.0409L44.0418 37.6713C44.21 37.7125 44.387 37.698 44.5464 37.6301C44.7058 37.5621 44.8391 37.4442 44.9266 37.294C45.0198 37.1299 45.0522 36.9379 45.0179 36.7521C44.9837 36.5663 44.8851 36.3986 44.7396 36.279L44.7424 36.2692Z" fill="black"/>
<path fill-rule="evenodd" clip-rule="evenodd" d="M19.7405 13.781C19.7405 13.7907 19.7405 13.8033 19.7405 13.8102C19.7375 13.8319 19.7375 13.854 19.7405 13.8757C19.7411 13.9539 19.7661 14.0299 19.812 14.093C19.8579 14.1562 19.9223 14.2032 19.9962 14.2275C20.0701 14.2518 20.1498 14.2522 20.2239 14.2285C20.298 14.2049 20.3629 14.1584 20.4093 14.0957L21.6014 12.6644C21.6429 12.6134 21.701 12.5789 21.7654 12.5669C21.8298 12.5549 21.8963 12.5663 21.9531 12.599C21.9881 12.617 22.0186 12.6426 22.0426 12.6738C22.0665 12.7051 22.0832 12.7414 22.0916 12.7799L25.8813 23.8179C26.1075 24.3398 26.1559 24.9222 26.019 25.4747C25.882 26.0271 25.5673 26.5185 25.1239 26.8725L33.9204 28.5822L24.3028 0.575292C24.2561 0.407896 24.156 0.260545 24.0179 0.155907C23.8799 0.051268 23.7114 -0.00486836 23.5385 -0.00389377C23.3528 -0.00410527 23.1732 0.0630887 23.0328 0.185351C22.8924 0.307614 22.8006 0.476727 22.7742 0.661608L19.7405 13.781Z" fill="black"/>
<path fill-rule="evenodd" clip-rule="evenodd" d="M78.013 20.4861H65.7356C65.4785 20.4861 65.232 20.3834 65.0503 20.2006C64.8685 20.0178 64.7664 19.7699 64.7664 19.5114C64.7664 19.253 64.8685 19.0051 65.0503 18.8223C65.232 18.6395 65.4785 18.5369 65.7356 18.5369H85.0136V11.5156H65.7356C63.627 11.5156 61.6048 12.3579 60.1138 13.8571C58.6228 15.3564 57.7852 17.3898 57.7852 19.5101C57.7852 21.6303 58.6228 23.6637 60.1138 25.163C61.6048 26.6622 63.627 27.5045 65.7356 27.5045H78.013C78.27 27.5045 78.5166 27.6072 78.6984 27.7899C78.8801 27.9727 78.9822 28.2206 78.9822 28.4791C78.9822 28.7376 78.8801 28.9854 78.6984 29.1682C78.5166 29.351 78.27 29.4537 78.013 29.4537H58.7336V36.4749H78.013C80.1032 36.4472 82.0985 35.5928 83.5669 34.0967C85.0352 32.6006 85.8585 30.5831 85.8585 28.4812C85.8585 26.3792 85.0352 24.3618 83.5669 22.8657C82.0985 21.3696 80.1032 20.5138 78.013 20.4861Z" fill="black"/>
<path fill-rule="evenodd" clip-rule="evenodd" d="M109.131 36.4746H117.885L106.304 11.5195H97.546L85.9609 36.4746H94.7214L96.4646 32.2978H107.386L109.131 36.4746ZM99.1619 25.8558L101.931 19.2313L104.7 25.8558H99.1619Z" fill="black"/>
<path d="M139.352 11.5234V11.5318H139.214V26.3414L128.378 11.5234H119.875V36.473H127.155V21.6508L137.991 36.4813H146.494V11.5234H139.352Z" fill="black"/>
<path d="M171.839 11.5229L164.487 21.5751L157.139 11.5229H148.473L160.156 27.5006V36.4724H168.817V27.4992L180.5 11.5215L171.839 11.5229Z" fill="black"/>
</g>
<defs>
<clipPath id="clip0_1677_537">
<rect width="180" height="48" fill="white" transform="translate(0.5)"/>
</clipPath>
</defs>
</svg>
