<svg width="86" height="48" viewBox="0 0 86 48" fill="none" xmlns="http://www.w3.org/2000/svg">
<g opacity="0.32" clip-path="url(#clip0_1677_554)">
<path d="M59.0152 23.1051C58.9164 23.4901 58.8496 23.8168 58.748 24.1324C57.3589 28.4581 54.6147 31.5449 50.3792 33.304C48.3018 34.167 46.1478 34.6435 43.9124 34.5908C40.711 34.5152 37.7581 33.6231 35.2624 31.5338C32.741 29.4237 31.2656 26.6907 30.5501 23.5165C30.2293 22.0917 30.0853 20.6482 30.317 19.2102C31.3623 12.7182 35.0683 7.47832 41.7619 5.5541C45.2326 4.55662 48.734 4.48517 52.0738 5.8503C56.6358 7.71486 59.4314 11.1436 60.2297 16.0714C60.2958 16.4807 60.2979 16.8996 60.3313 17.3137C60.348 17.5184 60.2645 17.5995 60.0501 17.5988C58.0896 17.5933 56.1291 17.5905 54.1686 17.6016C53.8757 17.603 53.8972 17.415 53.8708 17.2416C53.6383 15.7329 53.069 14.3712 52.0523 13.2191C50.6833 11.668 48.8975 10.9598 46.8834 10.7316C46.6649 10.7066 46.4422 10.7052 46.2258 10.6692C45.9119 10.6178 45.7831 10.7323 45.7121 11.0493C45.1776 13.4285 44.623 15.803 44.0739 18.1787C43.3327 21.3876 42.5957 24.5979 41.8413 27.8033C41.7626 28.1363 41.8517 28.2431 42.1649 28.3249C46.3489 29.4174 50.2859 27.6576 52.3501 23.7176C52.6021 23.2376 52.8672 23.0774 53.4017 23.0892C55.1061 23.1273 56.8119 23.103 58.5169 23.103H59.0146L59.0152 23.1051Z" fill="black"/>
<path d="M72.1252 17.6364H82.9813C82.9507 17.8077 82.9347 17.9263 82.9083 18.0429C82.561 19.5752 82.2053 21.1061 81.8713 22.6411C81.8052 22.9443 81.6834 23.0449 81.366 23.0435C78.0262 23.031 74.6856 23.0407 71.3457 23.0275C70.9915 23.0261 70.8488 23.1246 70.7723 23.4839C70.441 25.0433 70.0714 26.595 69.7172 28.1495C69.6921 28.2598 69.6768 28.3722 69.6476 28.5345H80.4857C80.4697 28.6711 80.4676 28.7599 80.4481 28.8446C80.0834 30.4212 79.7124 31.9959 79.3561 33.5739C79.297 33.8368 79.1801 33.9173 78.91 33.9166C71.8586 33.909 64.8073 33.9111 57.7552 33.9097C57.6536 33.9097 57.5513 33.8979 57.4023 33.8889C57.5081 33.4151 57.6049 32.9684 57.7065 32.523C59.6482 24.0652 61.5927 15.6074 63.5267 7.1482C63.5977 6.83953 63.7223 6.75004 64.0355 6.75074C71.052 6.75975 78.0693 6.75767 85.0859 6.75767H85.5C85.3448 7.43677 85.2028 8.06314 85.0581 8.68813C84.82 9.71267 84.5681 10.7344 84.3489 11.7624C84.2856 12.0593 84.1651 12.1447 83.8659 12.144C80.526 12.1336 77.1855 12.144 73.8456 12.1287C73.4823 12.1273 73.3473 12.2438 73.2714 12.5879C72.9276 14.1452 72.5567 15.6962 72.1969 17.25C72.1711 17.3603 72.1551 17.4734 72.1252 17.635V17.6364Z" fill="black"/>
<path d="M31.8441 33.9451C31.6722 33.9534 31.5581 33.9638 31.444 33.9638C27.7206 33.9645 23.998 33.9617 20.2746 33.97C20.0018 33.97 19.894 33.8868 19.8404 33.6177C18.4867 26.8066 17.1227 19.9976 15.7725 13.1859C15.7391 13.0187 15.7851 12.7877 15.8839 12.6503C18.8577 8.51751 21.8433 4.393 24.8269 0.267099C24.8797 0.194264 24.9403 0.126979 25.044 0.000732422C27.3149 11.3366 29.5739 22.6141 31.8441 33.9458V33.9451Z" fill="black"/>
<path d="M16.4637 33.9367H0.5C4.659 28.1842 8.78043 22.4823 12.9568 16.7054C14.1344 22.4934 15.2938 28.1904 16.4637 33.9367Z" fill="black"/>
<path d="M9.34828 47.7988C9.65101 46.2527 9.93983 44.7724 10.2433 43.2241H6.02024C5.88661 43.8831 5.74534 44.5789 5.60475 45.2753C5.45721 46.0099 5.30341 46.7438 5.1677 47.4804C5.12872 47.6927 5.03964 47.7648 4.82529 47.7648C4.14117 47.7635 3.45705 47.7843 2.77362 47.7891C2.61495 47.7905 2.45558 47.7628 2.24609 47.744C2.35745 47.1614 2.45975 46.6106 2.56902 46.0612C3.16057 43.0965 3.75909 40.1332 4.34021 37.1664C4.39867 36.8674 4.50794 36.771 4.81346 36.7821C5.49688 36.8064 6.1817 36.7911 6.86582 36.7918C6.99039 36.7918 7.11566 36.7918 7.29035 36.7918C7.0064 38.2395 6.73289 39.6351 6.45521 41.0495C6.55473 41.0648 6.60971 41.0807 6.66469 41.0807C7.90557 41.0786 9.14645 41.0703 10.3873 41.0745C10.6156 41.0752 10.7061 40.9996 10.7492 40.7686C10.9754 39.5658 11.2273 38.3678 11.4577 37.1664C11.5092 36.8972 11.608 36.7835 11.9094 36.7925C12.7083 36.8175 13.508 36.8008 14.348 36.8008C14.348 36.9063 14.3633 37.0027 14.3459 37.0922C13.6618 40.5445 12.9714 43.9962 12.2935 47.4499C12.242 47.7135 12.1502 47.8127 11.8697 47.8065C11.0485 47.787 10.2273 47.7995 9.34897 47.7995L9.34828 47.7988Z" fill="black"/>
<path d="M49.6229 42.6033C49.3828 43.1132 49.1413 43.6216 48.904 44.1322C48.3876 45.2434 47.8691 46.3533 47.3638 47.4694C47.2699 47.6761 47.1606 47.7663 46.9226 47.7586C46.2969 47.7385 45.6706 47.7441 45.0442 47.7462C44.8584 47.7462 44.7512 47.7025 44.7144 47.4895C44.2696 44.9049 43.8152 42.3217 43.3642 39.7378C43.3607 39.7163 43.3677 39.6921 43.3746 39.604C43.5222 39.604 43.6767 39.604 43.8312 39.604C44.5153 39.606 45.1994 39.6192 45.8836 39.6067C46.1445 39.6019 46.2427 39.6851 46.2795 39.9487C46.4904 41.4359 46.7215 42.9204 46.9463 44.4055C46.9525 44.4492 46.9651 44.4915 46.995 44.6275C47.0889 44.4429 47.1523 44.3292 47.2059 44.2113C47.8607 42.7816 48.5205 41.3548 49.1615 39.9189C49.2687 39.6782 49.4002 39.6033 49.657 39.6088C50.3968 39.6262 51.1366 39.6151 51.9042 39.6151C52.0949 41.2798 52.2821 42.9169 52.4812 44.6545C52.5793 44.4998 52.6357 44.4249 52.6781 44.3431C53.4548 42.8572 54.2343 41.3728 55.0005 39.8814C55.1049 39.6782 55.2177 39.5915 55.4508 39.5984C56.0389 39.6144 56.6283 39.604 57.2526 39.604C57.2081 39.7142 57.1858 39.7892 57.1496 39.8565C55.7821 42.4036 54.4117 44.9493 53.0491 47.4985C52.9488 47.6865 52.8326 47.7607 52.6169 47.7559C51.9794 47.742 51.3412 47.7385 50.7037 47.7573C50.4434 47.7649 50.3745 47.6671 50.3446 47.4257C50.1504 45.8663 49.9403 44.3098 49.7343 42.7518C49.7287 42.7095 49.7148 42.6679 49.705 42.6262C49.6779 42.6179 49.65 42.6096 49.6229 42.6013V42.6033Z" fill="black"/>
<path d="M37.8963 47.744C37.9722 47.3354 38.0369 46.9865 38.1016 46.6369L38.0494 46.6043C37.9791 46.6848 37.9095 46.7652 37.8392 46.8457C36.97 47.846 35.7263 48.2115 34.4701 47.7794C33.232 47.3541 32.6586 46.3983 32.534 45.149C32.3552 43.3566 32.8813 41.7792 34.1236 40.4772C35.0568 39.4984 36.2462 39.2612 37.5476 39.5192C38.167 39.642 38.6138 40.0041 38.8978 40.566C38.9382 40.6457 38.982 40.7241 39.0718 40.8913C39.2033 40.2552 39.3181 39.7086 39.4281 39.1613C39.5694 38.4593 39.7002 37.7553 39.8519 37.0553C39.8728 36.9596 39.989 36.8133 40.0642 36.8119C40.9202 36.7945 41.7762 36.8008 42.6859 36.8008C42.5689 37.3987 42.4618 37.9599 42.3497 38.5197C41.7575 41.4892 41.161 44.4574 40.5778 47.4284C40.5305 47.6705 40.4477 47.7537 40.1985 47.7481C39.4476 47.7329 38.696 47.7426 37.8956 47.7426L37.8963 47.744ZM35.3944 44.7106C35.3944 44.8257 35.3895 44.9416 35.3951 45.0567C35.4382 45.9439 36.1585 46.4586 37.0118 46.2034C37.5407 46.0452 37.9854 45.7213 38.1295 45.1969C38.3758 44.3006 38.6187 43.3843 38.6911 42.4638C38.7739 41.4081 37.6639 40.7435 36.7389 41.236C36.4703 41.3789 36.2274 41.6453 36.0736 41.9124C35.5774 42.7725 35.4264 43.7305 35.3951 44.7106H35.3944Z" fill="black"/>
<path d="M23.0978 47.7523C22.3698 47.7523 21.5702 47.7586 20.7719 47.7419C20.6975 47.7405 20.5659 47.5963 20.5638 47.5165C20.5562 47.1863 20.5882 46.8554 20.6084 46.4767C20.4135 46.6834 20.2451 46.8645 20.0746 47.0434C19.4789 47.6677 18.7189 47.9251 17.883 47.9424C17.3792 47.9528 16.853 47.9389 16.3721 47.8071C15.4625 47.5574 14.7492 47.0337 14.6156 46.014C14.4778 44.9659 15.0053 44.2424 15.8557 43.7173C16.7257 43.1804 17.7118 43.0077 18.7029 42.8808C19.4155 42.7899 20.1324 42.7254 20.8499 42.6865C21.1422 42.6706 21.2556 42.552 21.3148 42.2904C21.4735 41.5898 21.1923 41.1397 20.4859 40.9926C19.5331 40.7935 18.7328 41.1362 18.215 41.9499C18.1572 42.0407 18.0278 42.1552 17.9394 42.1482C17.1996 42.0914 16.4619 42.0095 15.7242 41.9332C15.6936 41.9297 15.6657 41.9013 15.6191 41.8736C16.045 40.8941 16.7577 40.2157 17.7571 39.8668C19.1949 39.3646 20.6682 39.325 22.1402 39.6913C22.5243 39.787 22.9002 39.9812 23.2335 40.2011C23.8265 40.5917 24.1417 41.1667 24.0561 41.8881C23.9664 42.6442 23.8327 43.3954 23.7088 44.1474C23.5133 45.328 23.3101 46.5079 23.0992 47.7523H23.0978ZM20.9905 43.7936C19.9542 43.8595 18.9771 43.9046 18.1051 44.4429C18.0368 44.4852 17.9742 44.5386 17.9151 44.5927C17.5532 44.925 17.423 45.4348 17.5894 45.8538C17.7522 46.263 18.1218 46.4816 18.6493 46.485C19.0836 46.4878 19.4635 46.3407 19.8046 46.0799C20.5325 45.5229 20.8046 44.7287 20.9912 43.7936H20.9905Z" fill="black"/>
<path d="M62.9368 46.4594C62.7753 46.6453 62.6674 46.7757 62.5533 46.9006C61.8977 47.6199 61.0675 47.9238 60.107 47.9571C59.2385 47.9876 58.4173 47.8821 57.7116 47.323C56.6635 46.4934 56.6447 45.0138 57.6775 44.0906C58.3755 43.4663 59.2336 43.1701 60.1335 43.0314C61.151 42.8739 62.1796 42.7803 63.2054 42.6901C63.4671 42.6672 63.5764 42.5652 63.6334 42.3377C63.8165 41.6114 63.4622 41.0558 62.7169 40.9726C61.7982 40.8699 61.0118 41.0926 60.5344 41.9742C60.4926 42.0505 60.3819 42.1469 60.311 42.1414C59.528 42.0804 58.7471 42.0006 57.9217 41.9215C58.2022 41.2438 58.6177 40.7353 59.1752 40.3406C59.8739 39.8447 60.6722 39.6213 61.5122 39.5284C62.5095 39.4174 63.5033 39.4167 64.4797 39.681C65.9816 40.0882 66.5829 41.0295 66.324 42.552C66.2579 42.9391 66.1876 43.3255 66.1152 43.7112C65.9593 44.5401 65.7846 45.3655 65.651 46.1979C65.5709 46.6953 65.5556 47.203 65.5076 47.7386C64.7031 47.7386 63.884 47.7448 63.0648 47.7274C62.998 47.7261 62.8804 47.5637 62.879 47.475C62.8741 47.1649 62.9103 46.8548 62.9368 46.4594ZM63.3168 43.7965C62.3738 43.8443 61.4948 43.8957 60.6909 44.2973C60.4425 44.4215 60.2163 44.6296 60.0388 44.8474C59.7751 45.1706 59.7806 45.5667 59.9532 45.9288C60.1251 46.2895 60.4557 46.458 60.8538 46.483C61.3778 46.5163 61.833 46.3408 62.2269 46.0051C62.8895 45.4411 63.1414 44.6746 63.3168 43.7965Z" fill="black"/>
<path d="M83.5614 45.3481C83.0909 46.3816 82.3706 47.067 81.4234 47.4943C80.0531 48.1137 78.6257 48.1595 77.2206 47.6566C75.2023 46.9345 74.2962 44.9472 74.9706 42.8613C75.7097 40.5736 77.8859 39.2182 80.3997 39.4478C81.5077 39.5491 82.4729 39.9001 83.2093 40.7713C83.9894 41.6939 84.1022 42.7732 83.9574 43.908C83.9477 43.983 83.7458 44.0856 83.6324 44.0863C82.1131 44.0981 80.5946 44.0939 79.0753 44.0933C78.7044 44.0933 78.3327 44.1071 77.9625 44.0884C77.6987 44.0752 77.5964 44.1564 77.5874 44.4318C77.5574 45.3862 77.8504 45.9287 78.57 46.1881C79.4066 46.4899 80.4241 46.2249 80.889 45.4847C81.1458 45.0762 81.406 44.9964 81.8389 45.0866C82.3894 45.2017 82.9524 45.2586 83.5607 45.3481H83.5614ZM77.865 42.742C78.9869 42.742 80.0844 42.7469 81.182 42.7323C81.2585 42.7316 81.3873 42.5977 81.4005 42.5124C81.5292 41.6439 81.0358 41.0273 80.1582 40.935C79.0113 40.8143 78.1441 41.4788 77.8657 42.742H77.865Z" fill="black"/>
<path d="M32.2399 39.5172C32.1508 40.2289 32.0735 40.9163 31.9684 41.6002C31.9538 41.6932 31.8014 41.8361 31.7123 41.8368C30.1555 41.8423 29.3029 42.9626 28.9995 44.3076C28.7657 45.3439 28.5555 46.3858 28.3516 47.4291C28.3056 47.6615 28.227 47.7593 27.973 47.7551C27.1184 47.7398 26.263 47.7496 25.375 47.7496C25.5921 46.6452 25.8002 45.5819 26.0111 44.5185C26.3124 43.0014 26.6242 41.4858 26.9117 39.966C26.9652 39.6816 27.0669 39.5872 27.3605 39.599C28.0085 39.6254 28.6585 39.6108 29.3071 39.615C29.4192 39.615 29.5305 39.6247 29.6746 39.6316C29.5695 40.1997 29.4714 40.7283 29.3732 41.2569C30.024 40.1921 30.8159 39.3847 32.2399 39.5186V39.5172Z" fill="black"/>
<path d="M72.0069 39.6178C71.9025 40.188 71.8078 40.702 71.7132 41.216C71.7382 41.2341 71.7633 41.2528 71.7877 41.2708C72.373 40.1901 73.142 39.3993 74.5102 39.5152C74.5158 39.597 74.5346 39.6858 74.5255 39.7711C74.4587 40.3684 74.3808 40.9649 74.3168 41.5622C74.2966 41.7508 74.236 41.8369 74.0238 41.8563C72.5588 41.9915 71.7369 42.679 71.3805 44.1253C71.1154 45.2018 70.9142 46.2936 70.6839 47.3785C70.6602 47.4909 70.6324 47.6026 70.6032 47.7309H67.7031C67.994 46.2666 68.2794 44.8279 68.5647 43.39C68.7895 42.2565 69.0261 41.1259 69.2328 39.9889C69.2878 39.6872 69.4089 39.6019 69.7075 39.6109C70.4591 39.6324 71.2114 39.6178 72.0062 39.6178H72.0069Z" fill="black"/>
<path d="M82.119 31.5388C82.499 31.5388 82.6862 31.7573 82.6862 32.0168C82.6862 32.2054 82.5846 32.4073 82.3152 32.4739L82.7119 33.1356H82.3988L82.0299 32.4968H81.8295V33.1356H81.5664V31.5395H82.1197L82.119 31.5388ZM82.119 31.7525H81.8288V32.288H82.119C82.3243 32.288 82.4162 32.1756 82.4162 32.0168C82.4162 31.8579 82.3243 31.7525 82.119 31.7525Z" fill="black"/>
<path d="M82.0849 33.9569C81.1871 33.9569 80.457 33.2292 80.457 32.3344C80.457 31.4396 81.1871 30.7119 82.0849 30.7119C82.9826 30.7119 83.7127 31.4396 83.7127 32.3344C83.7127 33.2292 82.9826 33.9569 82.0849 33.9569ZM82.0849 31.0421C81.3701 31.0421 80.7883 31.622 80.7883 32.3344C80.7883 33.0468 81.3701 33.6267 82.0849 33.6267C82.7996 33.6267 83.3814 33.0468 83.3814 32.3344C83.3814 31.622 82.7996 31.0421 82.0849 31.0421Z" fill="black"/>
</g>
<defs>
<clipPath id="clip0_1677_554">
<rect width="85" height="48" fill="white" transform="translate(0.5)"/>
</clipPath>
</defs>
</svg>
